<?xml version="1.0" encoding="utf-8" standalone="no"?>
<!DOCTYPE svg PUBLIC "-//W3C//DTD SVG 1.1//EN"
  "http://www.w3.org/Graphics/SVG/1.1/DTD/svg11.dtd">
<svg xmlns:xlink="http://www.w3.org/1999/xlink" width="468pt" height="262.8pt" viewBox="0 0 468 262.8" xmlns="http://www.w3.org/2000/svg" version="1.1">
 <metadata>
  <rdf:RDF xmlns:dc="http://purl.org/dc/elements/1.1/" xmlns:cc="http://creativecommons.org/ns#" xmlns:rdf="http://www.w3.org/1999/02/22-rdf-syntax-ns#">
   <cc:Work>
    <dc:type rdf:resource="http://purl.org/dc/dcmitype/StillImage"/>
    <dc:date>2026-09-20T10:07:42.974739</dc:date>
    <dc:format>image/svg+xml</dc:format>
    <dc:creator>
     <cc:Agent>
      <dc:title>Matplotlib v3.11.1, https://matplotlib.org/</dc:title>
     </cc:Agent>
    </dc:creator>
   </cc:Work>
  </rdf:RDF>
 </metadata>
 <defs>
  <style type="text/css">*{stroke-linejoin: round; stroke-linecap: butt}</style>
 </defs>
 <g id="figure_1">
  <g id="patch_1">
   <path d="M 0 262.8 
L 468 262.8 
L 468 0 
L 0 0 
z
" style="fill: #ffffff"/>
  </g>
  <g id="axes_1">
   <g id="patch_2">
    <path d="M 74.88 120.534489 
L 453.96 120.534489 
L 453.96 13.14 
L 74.88 13.14 
z
" style="fill: #ffffff"/>
   </g>
   <g id="matplotlib.axis_1">
    <g id="xtick_1">
     <g id="line2d_1">
      <defs>
       <path id="m4f7c3b9b09" d="M 0 0 
L 0 3.5 
" style="stroke: #000000; stroke-width: 0.8"/>
      </defs>
      <g>
       <use xlink:href="#m4f7c3b9b09" x="74.88" y="120.534489" style="stroke: #000000; stroke-width: 0.8"/>
      </g>
     </g>
    </g>
    <g id="xtick_2">
     <g id="line2d_2">
      <g>
       <use xlink:href="#m4f7c3b9b09" x="130.627059" y="120.534489" style="stroke: #000000; stroke-width: 0.8"/>
      </g>
     </g>
    </g>
    <g id="xtick_3">
     <g id="line2d_3">
      <g>
       <use xlink:href="#m4f7c3b9b09" x="186.374118" y="120.534489" style="stroke: #000000; stroke-width: 0.8"/>
      </g>
     </g>
    </g>
    <g id="xtick_4">
     <g id="line2d_4">
      <g>
       <use xlink:href="#m4f7c3b9b09" x="242.121176" y="120.534489" style="stroke: #000000; stroke-width: 0.8"/>
      </g>
     </g>
    </g>
    <g id="xtick_5">
     <g id="line2d_5">
      <g>
       <use xlink:href="#m4f7c3b9b09" x="297.868235" y="120.534489" style="stroke: #000000; stroke-width: 0.8"/>
      </g>
     </g>
    </g>
    <g id="xtick_6">
     <g id="line2d_6">
      <g>
       <use xlink:href="#m4f7c3b9b09" x="353.615294" y="120.534489" style="stroke: #000000; stroke-width: 0.8"/>
      </g>
     </g>
    </g>
    <g id="xtick_7">
     <g id="line2d_7">
      <g>
       <use xlink:href="#m4f7c3b9b09" x="409.362353" y="120.534489" style="stroke: #000000; stroke-width: 0.8"/>
      </g>
     </g>
    </g>
   </g>
   <g id="matplotlib.axis_2">
    <g id="ytick_1">
     <g id="line2d_8">
      <path d="M 74.88 95.145283 
L 453.96 95.145283 
" clip-path="url(#pe6e8f421b1)" style="fill: none; stroke: #dfe5eb; stroke-width: 0.6; stroke-linecap: square"/>
     </g>
     <g id="line2d_9">
      <defs>
       <path id="m8d5b445337" d="M 0 0 
L -3.5 0 
" style="stroke: #000000; stroke-width: 0.8"/>
      </defs>
      <g>
       <use xlink:href="#m8d5b445337" x="74.88" y="95.145283" style="stroke: #000000; stroke-width: 0.8"/>
      </g>
     </g>
     <g id="text_1">
      <text style="font-size: 10px; font-family: 'DejaVu Sans'; text-anchor: end" x="67.88" y="98.944111" transform="rotate(-0 67.88 98.944111)">0.6</text>
     </g>
    </g>
    <g id="ytick_2">
     <g id="line2d_10">
      <path d="M 74.88 52.71651 
L 453.96 52.71651 
" clip-path="url(#pe6e8f421b1)" style="fill: none; stroke: #dfe5eb; stroke-width: 0.6; stroke-linecap: square"/>
     </g>
     <g id="line2d_11">
      <g>
       <use xlink:href="#m8d5b445337" x="74.88" y="52.71651" style="stroke: #000000; stroke-width: 0.8"/>
      </g>
     </g>
     <g id="text_2">
      <text style="font-size: 10px; font-family: 'DejaVu Sans'; text-anchor: end" x="67.88" y="56.515338" transform="rotate(-0 67.88 56.515338)">0.8</text>
     </g>
    </g>
    <g id="text_3">
     <text style="font-size: 11px; font-family: 'DejaVu Sans'; text-anchor: middle" x="45.334297" y="66.837244" transform="rotate(-90 45.334297 66.837244)">Power / scale</text>
    </g>
   </g>
   <g id="line2d_12">
    <path d="M 74.88 19.158507 
L 102.753529 34.306442 
L 130.627059 47.325482 
L 158.500588 54.06678 
L 186.374118 115.652921 
L 214.247647 65.499671 
L 242.121176 22.963161 
L 269.994706 34.660659 
L 297.868235 29.164612 
L 325.741765 31.690919 
L 353.615294 18.021568 
L 381.488824 19.344293 
L 409.362353 84.451413 
" clip-path="url(#pe6e8f421b1)" style="fill: none; stroke: #253744; stroke-width: 1.8; stroke-linecap: square"/>
    <defs>
     <path id="m02e97310f2" d="M 0 1.5 
C 0.397805 1.5 0.77937 1.341951 1.06066 1.06066 
C 1.341951 0.77937 1.5 0.397805 1.5 0 
C 1.5 -0.397805 1.341951 -0.77937 1.06066 -1.06066 
C 0.77937 -1.341951 0.397805 -1.5 0 -1.5 
C -0.397805 -1.5 -0.77937 -1.341951 -1.06066 -1.06066 
C -1.341951 -0.77937 -1.5 -0.397805 -1.5 0 
C -1.5 0.397805 -1.341951 0.77937 -1.06066 1.06066 
C -0.77937 1.341951 -0.397805 1.5 0 1.5 
z
" style="stroke: #253744"/>
    </defs>
    <g clip-path="url(#pe6e8f421b1)">
     <use xlink:href="#m02e97310f2" x="74.88" y="19.158507" style="fill: #253744; stroke: #253744"/>
     <use xlink:href="#m02e97310f2" x="102.753529" y="34.306442" style="fill: #253744; stroke: #253744"/>
     <use xlink:href="#m02e97310f2" x="130.627059" y="47.325482" style="fill: #253744; stroke: #253744"/>
     <use xlink:href="#m02e97310f2" x="158.500588" y="54.06678" style="fill: #253744; stroke: #253744"/>
     <use xlink:href="#m02e97310f2" x="186.374118" y="115.652921" style="fill: #253744; stroke: #253744"/>
     <use xlink:href="#m02e97310f2" x="214.247647" y="65.499671" style="fill: #253744; stroke: #253744"/>
     <use xlink:href="#m02e97310f2" x="242.121176" y="22.963161" style="fill: #253744; stroke: #253744"/>
     <use xlink:href="#m02e97310f2" x="269.994706" y="34.660659" style="fill: #253744; stroke: #253744"/>
     <use xlink:href="#m02e97310f2" x="297.868235" y="29.164612" style="fill: #253744; stroke: #253744"/>
     <use xlink:href="#m02e97310f2" x="325.741765" y="31.690919" style="fill: #253744; stroke: #253744"/>
     <use xlink:href="#m02e97310f2" x="353.615294" y="18.021568" style="fill: #253744; stroke: #253744"/>
     <use xlink:href="#m02e97310f2" x="381.488824" y="19.344293" style="fill: #253744; stroke: #253744"/>
     <use xlink:href="#m02e97310f2" x="409.362353" y="84.451413" style="fill: #253744; stroke: #253744"/>
    </g>
   </g>
   <g id="patch_3">
    <path d="M 74.88 120.534489 
L 74.88 13.14 
" style="fill: none; stroke: #000000; stroke-width: 0.8; stroke-linejoin: miter; stroke-linecap: square"/>
   </g>
   <g id="patch_4">
    <path d="M 74.88 120.534489 
L 453.96 120.534489 
" style="fill: none; stroke: #000000; stroke-width: 0.8; stroke-linejoin: miter; stroke-linecap: square"/>
   </g>
  </g>
  <g id="axes_2">
   <g id="patch_5">
    <path d="M 74.88 215.496 
L 453.96 215.496 
L 453.96 132.884855 
L 74.88 132.884855 
z
" style="fill: #ffffff"/>
   </g>
   <g id="matplotlib.axis_3">
    <g id="xtick_8">
     <g id="line2d_13">
      <g>
       <use xlink:href="#m4f7c3b9b09" x="74.88" y="215.496" style="stroke: #000000; stroke-width: 0.8"/>
      </g>
     </g>
     <g id="text_4">
      <text style="font-size: 10px; font-family: 'DejaVu Sans'; text-anchor: middle" x="74.88" y="230.093656" transform="rotate(-0 74.88 230.093656)">−2</text>
     </g>
    </g>
    <g id="xtick_9">
     <g id="line2d_14">
      <g>
       <use xlink:href="#m4f7c3b9b09" x="130.627059" y="215.496" style="stroke: #000000; stroke-width: 0.8"/>
      </g>
     </g>
     <g id="text_5">
      <text style="font-size: 10px; font-family: 'DejaVu Sans'; text-anchor: middle" x="130.627059" y="230.093656" transform="rotate(-0 130.627059 230.093656)">−1</text>
     </g>
    </g>
    <g id="xtick_10">
     <g id="line2d_15">
      <g>
       <use xlink:href="#m4f7c3b9b09" x="186.374118" y="215.496" style="stroke: #000000; stroke-width: 0.8"/>
      </g>
     </g>
     <g id="text_6">
      <text style="font-size: 10px; font-family: 'DejaVu Sans'; text-anchor: middle" x="186.374118" y="230.093656" transform="rotate(-0 186.374118 230.093656)">0</text>
     </g>
    </g>
    <g id="xtick_11">
     <g id="line2d_16">
      <g>
       <use xlink:href="#m4f7c3b9b09" x="242.121176" y="215.496" style="stroke: #000000; stroke-width: 0.8"/>
      </g>
     </g>
     <g id="text_7">
      <text style="font-size: 10px; font-family: 'DejaVu Sans'; text-anchor: middle" x="242.121176" y="230.093656" transform="rotate(-0 242.121176 230.093656)">1</text>
     </g>
    </g>
    <g id="xtick_12">
     <g id="line2d_17">
      <g>
       <use xlink:href="#m4f7c3b9b09" x="297.868235" y="215.496" style="stroke: #000000; stroke-width: 0.8"/>
      </g>
     </g>
     <g id="text_8">
      <text style="font-size: 10px; font-family: 'DejaVu Sans'; text-anchor: middle" x="297.868235" y="230.093656" transform="rotate(-0 297.868235 230.093656)">2</text>
     </g>
    </g>
    <g id="xtick_13">
     <g id="line2d_18">
      <g>
       <use xlink:href="#m4f7c3b9b09" x="353.615294" y="215.496" style="stroke: #000000; stroke-width: 0.8"/>
      </g>
     </g>
     <g id="text_9">
      <text style="font-size: 10px; font-family: 'DejaVu Sans'; text-anchor: middle" x="353.615294" y="230.093656" transform="rotate(-0 353.615294 230.093656)">3</text>
     </g>
    </g>
    <g id="xtick_14">
     <g id="line2d_19">
      <g>
       <use xlink:href="#m4f7c3b9b09" x="409.362353" y="215.496" style="stroke: #000000; stroke-width: 0.8"/>
      </g>
     </g>
     <g id="text_10">
      <text style="font-size: 10px; font-family: 'DejaVu Sans'; text-anchor: middle" x="409.362353" y="230.093656" transform="rotate(-0 409.362353 230.093656)">4</text>
     </g>
    </g>
    <g id="text_11">
     <text style="font-size: 11px; font-family: 'DejaVu Sans'; text-anchor: middle" x="264.42" y="244.854281" transform="rotate(-0 264.42 244.854281)">Hours relative to reference onset</text>
    </g>
   </g>
   <g id="matplotlib.axis_4">
    <g id="ytick_3">
     <g id="line2d_20">
      <g>
       <use xlink:href="#m8d5b445337" x="74.88" y="203.694408" style="stroke: #000000; stroke-width: 0.8"/>
      </g>
     </g>
     <g id="text_12">
      <text style="font-size: 10px; font-family: 'DejaVu Sans'; text-anchor: end" x="67.88" y="207.493236" transform="rotate(-0 67.88 207.493236)">OpSDA</text>
     </g>
    </g>
    <g id="ytick_4">
     <g id="line2d_21">
      <g>
       <use xlink:href="#m8d5b445337" x="74.88" y="184.025088" style="stroke: #000000; stroke-width: 0.8"/>
      </g>
     </g>
     <g id="text_13">
      <text style="font-size: 10px; font-family: 'DejaVu Sans'; text-anchor: end" x="67.88" y="187.824306" transform="rotate(-0 67.88 187.824306)">Mean shift</text>
     </g>
    </g>
    <g id="ytick_5">
     <g id="line2d_22">
      <g>
       <use xlink:href="#m8d5b445337" x="74.88" y="164.355767" style="stroke: #000000; stroke-width: 0.8"/>
      </g>
     </g>
     <g id="text_14">
      <text style="font-size: 10px; font-family: 'DejaVu Sans'; text-anchor: end" x="67.88" y="168.154986" transform="rotate(-0 67.88 168.154986)">Financial tail</text>
     </g>
    </g>
    <g id="ytick_6">
     <g id="line2d_23">
      <g>
       <use xlink:href="#m8d5b445337" x="74.88" y="144.686447" style="stroke: #000000; stroke-width: 0.8"/>
      </g>
     </g>
     <g id="text_15">
      <text style="font-size: 10px; font-family: 'DejaVu Sans'; text-anchor: end" x="67.88" y="148.485666" transform="rotate(-0 67.88 148.485666)">Threshold</text>
     </g>
    </g>
   </g>
   <g id="line2d_24">
    <path d="M 186.374118 144.686447 
L 297.868235 144.686447 
" clip-path="url(#p4964bf4731)" style="fill: none; stroke: #28719d; stroke-width: 6"/>
   </g>
   <g id="line2d_25">
    <path d="M 186.374118 164.355767 
L 297.868235 164.355767 
" clip-path="url(#p4964bf4731)" style="fill: none; stroke: #b97820; stroke-width: 6"/>
   </g>
   <g id="line2d_26">
    <path d="M 19.132941 184.025088 
L 214.247647 184.025088 
" clip-path="url(#p4964bf4731)" style="fill: none; stroke: #168a73; stroke-width: 6"/>
   </g>
   <g id="line2d_27">
    <path d="M 186.374118 203.694408 
L 269.994706 203.694408 
" clip-path="url(#p4964bf4731)" style="fill: none; stroke: #a33378; stroke-width: 6"/>
   </g>
   <g id="patch_6">
    <path d="M 74.88 215.496 
L 453.96 215.496 
" style="fill: none; stroke: #000000; stroke-width: 0.8; stroke-linejoin: miter; stroke-linecap: square"/>
   </g>
   <g id="text_16">
    <text style="font-size: 10px; font-family: 'DejaVu Sans'; text-anchor: start" x="356.402647" y="147.284103" transform="rotate(-0 356.402647 147.284103)">IoU 1.00</text>
   </g>
   <g id="text_17">
    <text style="font-size: 10px; font-family: 'DejaVu Sans'; text-anchor: start" x="356.402647" y="166.953424" transform="rotate(-0 356.402647 166.953424)">IoU 1.00</text>
   </g>
   <g id="text_18">
    <text style="font-size: 10px; font-family: 'DejaVu Sans'; text-anchor: start" x="356.402647" y="186.622744" transform="rotate(-0 356.402647 186.622744)">IoU 0.10</text>
   </g>
   <g id="text_19">
    <text style="font-size: 10px; font-family: 'DejaVu Sans'; text-anchor: start" x="356.402647" y="206.292064" transform="rotate(-0 356.402647 206.292064)">IoU 0.75</text>
   </g>
   <g id="PathCollection_1">
    <defs>
     <path id="m32fc778ebe" d="M 0 2.738613 
C 0.726289 2.738613 1.422928 2.450055 1.936492 1.936492 
C 2.450055 1.422928 2.738613 0.726289 2.738613 0 
C 2.738613 -0.726289 2.450055 -1.422928 1.936492 -1.936492 
C 1.422928 -2.450055 0.726289 -2.738613 0 -2.738613 
C -0.726289 -2.738613 -1.422928 -2.450055 -1.936492 -1.936492 
C -2.450055 -1.422928 -2.738613 -0.726289 -2.738613 0 
C -2.738613 0.726289 -2.450055 1.422928 -1.936492 1.936492 
C -1.422928 2.450055 -0.726289 2.738613 0 2.738613 
z
" style="stroke: #28719d"/>
    </defs>
    <g clip-path="url(#p4964bf4731)">
     <use xlink:href="#m32fc778ebe" x="186.374118" y="144.686447" style="fill: #28719d; stroke: #28719d"/>
     <use xlink:href="#m32fc778ebe" x="297.868235" y="144.686447" style="fill: #28719d; stroke: #28719d"/>
    </g>
   </g>
   <g id="PathCollection_2">
    <defs>
     <path id="m9980b776ce" d="M 0 2.738613 
C 0.726289 2.738613 1.422928 2.450055 1.936492 1.936492 
C 2.450055 1.422928 2.738613 0.726289 2.738613 0 
C 2.738613 -0.726289 2.450055 -1.422928 1.936492 -1.936492 
C 1.422928 -2.450055 0.726289 -2.738613 0 -2.738613 
C -0.726289 -2.738613 -1.422928 -2.450055 -1.936492 -1.936492 
C -2.450055 -1.422928 -2.738613 -0.726289 -2.738613 0 
C -2.738613 0.726289 -2.450055 1.422928 -1.936492 1.936492 
C -1.422928 2.450055 -0.726289 2.738613 0 2.738613 
z
" style="stroke: #b97820"/>
    </defs>
    <g clip-path="url(#p4964bf4731)">
     <use xlink:href="#m9980b776ce" x="186.374118" y="164.355767" style="fill: #b97820; stroke: #b97820"/>
     <use xlink:href="#m9980b776ce" x="297.868235" y="164.355767" style="fill: #b97820; stroke: #b97820"/>
    </g>
   </g>
   <g id="PathCollection_3">
    <defs>
     <path id="m09fe87ec0e" d="M 0 2.738613 
C 0.726289 2.738613 1.422928 2.450055 1.936492 1.936492 
C 2.450055 1.422928 2.738613 0.726289 2.738613 0 
C 2.738613 -0.726289 2.450055 -1.422928 1.936492 -1.936492 
C 1.422928 -2.450055 0.726289 -2.738613 0 -2.738613 
C -0.726289 -2.738613 -1.422928 -2.450055 -1.936492 -1.936492 
C -2.450055 -1.422928 -2.738613 -0.726289 -2.738613 0 
C -2.738613 0.726289 -2.450055 1.422928 -1.936492 1.936492 
C -1.422928 2.450055 -0.726289 2.738613 0 2.738613 
z
" style="stroke: #168a73"/>
    </defs>
    <g clip-path="url(#p4964bf4731)">
     <use xlink:href="#m09fe87ec0e" x="19.132941" y="184.025088" style="fill: #168a73; stroke: #168a73"/>
     <use xlink:href="#m09fe87ec0e" x="214.247647" y="184.025088" style="fill: #168a73; stroke: #168a73"/>
    </g>
   </g>
   <g id="PathCollection_4">
    <defs>
     <path id="m9eaf20a752" d="M 0 2.738613 
C 0.726289 2.738613 1.422928 2.450055 1.936492 1.936492 
C 2.450055 1.422928 2.738613 0.726289 2.738613 0 
C 2.738613 -0.726289 2.450055 -1.422928 1.936492 -1.936492 
C 1.422928 -2.450055 0.726289 -2.738613 0 -2.738613 
C -0.726289 -2.738613 -1.422928 -2.450055 -1.936492 -1.936492 
C -2.450055 -1.422928 -2.738613 -0.726289 -2.738613 0 
C -2.738613 0.726289 -2.450055 1.422928 -1.936492 1.936492 
C -1.422928 2.450055 -0.726289 2.738613 0 2.738613 
z
" style="stroke: #a33378"/>
    </defs>
    <g clip-path="url(#p4964bf4731)">
     <use xlink:href="#m9eaf20a752" x="186.374118" y="203.694408" style="fill: #a33378; stroke: #a33378"/>
     <use xlink:href="#m9eaf20a752" x="269.994706" y="203.694408" style="fill: #a33378; stroke: #a33378"/>
    </g>
   </g>
  </g>
 </g>
 <defs>
  <clipPath id="pe6e8f421b1">
   <rect x="74.88" y="13.14" width="379.08" height="107.394489"/>
  </clipPath>
  <clipPath id="p4964bf4731">
   <rect x="74.88" y="132.884855" width="379.08" height="82.611145"/>
  </clipPath>
 </defs>
</svg>
