<?xml version="1.0" encoding="utf-8" standalone="no"?>
<!DOCTYPE svg PUBLIC "-//W3C//DTD SVG 1.1//EN"
  "http://www.w3.org/Graphics/SVG/1.1/DTD/svg11.dtd">
<svg xmlns:xlink="http://www.w3.org/1999/xlink" width="468pt" height="226.8pt" viewBox="0 0 468 226.8" xmlns="http://www.w3.org/2000/svg" version="1.1">
 <metadata>
  <rdf:RDF xmlns:dc="http://purl.org/dc/elements/1.1/" xmlns:cc="http://creativecommons.org/ns#" xmlns:rdf="http://www.w3.org/1999/02/22-rdf-syntax-ns#">
   <cc:Work>
    <dc:type rdf:resource="http://purl.org/dc/dcmitype/StillImage"/>
    <dc:date>2026-09-21T10:45:32.266603</dc:date>
    <dc:format>image/svg+xml</dc:format>
    <dc:creator>
     <cc:Agent>
      <dc:title>Matplotlib v3.11.2, https://matplotlib.org/</dc:title>
     </cc:Agent>
    </dc:creator>
   </cc:Work>
  </rdf:RDF>
 </metadata>
 <defs>
  <style type="text/css">*{stroke-linejoin: round; stroke-linecap: butt}</style>
 </defs>
 <g id="figure_1">
  <g id="patch_1">
   <path d="M 0 226.8 
L 468 226.8 
L 468 0 
L 0 0 
z
" style="fill: #ffffff"/>
  </g>
  <g id="axes_1">
   <g id="patch_2">
    <path d="M 63.288947 156.492 
L 211.968947 156.492 
L 211.968947 22.68 
L 63.288947 22.68 
z
" style="fill: #ffffff"/>
   </g>
   <g id="matplotlib.axis_1">
    <g id="xtick_1">
     <g id="line2d_1">
      <defs>
       <path id="mc99fe147b3" d="M 0 0 
L 0 3.5 
" style="stroke: #000000; stroke-width: 0.8"/>
      </defs>
      <g>
       <use xlink:href="#mc99fe147b3" x="63.288947" y="156.492" style="stroke: #000000; stroke-width: 0.8"/>
      </g>
     </g>
     <g id="text_1">
      <text style="font-size: 10px; font-family: 'DejaVu Sans'; text-anchor: middle" x="63.288947" y="171.089656" transform="rotate(-0 63.288947 171.089656)">0.0</text>
     </g>
    </g>
    <g id="xtick_2">
     <g id="line2d_2">
      <g>
       <use xlink:href="#mc99fe147b3" x="137.628947" y="156.492" style="stroke: #000000; stroke-width: 0.8"/>
      </g>
     </g>
     <g id="text_2">
      <text style="font-size: 10px; font-family: 'DejaVu Sans'; text-anchor: middle" x="137.628947" y="171.089656" transform="rotate(-0 137.628947 171.089656)">0.5</text>
     </g>
    </g>
    <g id="xtick_3">
     <g id="line2d_3">
      <g>
       <use xlink:href="#mc99fe147b3" x="211.968947" y="156.492" style="stroke: #000000; stroke-width: 0.8"/>
      </g>
     </g>
     <g id="text_3">
      <text style="font-size: 10px; font-family: 'DejaVu Sans'; text-anchor: middle" x="211.968947" y="171.089656" transform="rotate(-0 211.968947 171.089656)">1.0</text>
     </g>
    </g>
    <g id="text_4">
     <text style="font-size: 11px; font-family: 'DejaVu Sans'; text-anchor: middle" x="137.628947" y="185.850281" transform="rotate(-0 137.628947 185.850281)">False-positive rate</text>
    </g>
   </g>
   <g id="matplotlib.axis_2">
    <g id="ytick_1">
     <g id="line2d_4">
      <defs>
       <path id="me223e1f1e1" d="M 0 0 
L -3.5 0 
" style="stroke: #000000; stroke-width: 0.8"/>
      </defs>
      <g>
       <use xlink:href="#me223e1f1e1" x="63.288947" y="156.492" style="stroke: #000000; stroke-width: 0.8"/>
      </g>
     </g>
     <g id="text_5">
      <text style="font-size: 10px; font-family: 'DejaVu Sans'; text-anchor: end" x="56.288947" y="160.290828" transform="rotate(-0 56.288947 160.290828)">0.0</text>
     </g>
    </g>
    <g id="ytick_2">
     <g id="line2d_5">
      <g>
       <use xlink:href="#me223e1f1e1" x="63.288947" y="90.897882" style="stroke: #000000; stroke-width: 0.8"/>
      </g>
     </g>
     <g id="text_6">
      <text style="font-size: 10px; font-family: 'DejaVu Sans'; text-anchor: end" x="56.288947" y="94.69671" transform="rotate(-0 56.288947 94.69671)">0.5</text>
     </g>
    </g>
    <g id="ytick_3">
     <g id="line2d_6">
      <g>
       <use xlink:href="#me223e1f1e1" x="63.288947" y="25.303765" style="stroke: #000000; stroke-width: 0.8"/>
      </g>
     </g>
     <g id="text_7">
      <text style="font-size: 10px; font-family: 'DejaVu Sans'; text-anchor: end" x="56.288947" y="29.102593" transform="rotate(-0 56.288947 29.102593)">1.0</text>
     </g>
    </g>
    <g id="text_8">
     <text style="font-size: 11px; font-family: 'DejaVu Sans'; text-anchor: middle" x="33.743244" y="89.586" transform="rotate(-90 33.743244 89.586)">True-positive rate</text>
    </g>
   </g>
   <g id="line2d_7">
    <path d="M 63.288947 156.492 
L 63.288947 148.271327 
L 65.597643 148.271327 
L 65.597643 147.928799 
L 71.138513 147.928799 
L 71.138513 145.873631 
L 72.061991 145.873631 
L 72.061991 143.818463 
L 74.832426 143.818463 
L 74.832426 137.652958 
L 75.294165 137.652958 
L 75.294165 134.912734 
L 77.60286 134.912734 
L 77.60286 134.227678 
L 78.0646 134.227678 
L 78.0646 131.144926 
L 78.526339 131.144926 
L 78.526339 130.45987 
L 80.835034 130.45987 
L 80.835034 129.089758 
L 82.220252 129.089758 
L 82.220252 127.377117 
L 84.528947 127.377117 
L 84.528947 123.951837 
L 86.837643 123.951837 
L 86.837643 123.266781 
L 88.22286 123.266781 
L 88.22286 122.581725 
L 91.455034 122.581725 
L 91.455034 120.869085 
L 94.225469 120.869085 
L 94.225469 118.471389 
L 96.072426 118.471389 
L 96.072426 117.443805 
L 104.38373 117.443805 
L 104.38373 117.101277 
L 106.692426 117.101277 
L 106.692426 112.648412 
L 108.539382 112.648412 
L 108.539382 111.620828 
L 109.46286 111.620828 
L 109.46286 110.593244 
L 111.771556 110.593244 
L 111.771556 110.250716 
L 112.695034 110.250716 
L 112.695034 108.538076 
L 116.850686 108.538076 
L 116.850686 106.482908 
L 117.774165 106.482908 
L 117.774165 106.14038 
L 119.621121 106.14038 
L 119.621121 105.797852 
L 124.700252 105.797852 
L 124.700252 104.42774 
L 126.547208 104.42774 
L 126.547208 102.715099 
L 132.088078 102.715099 
L 132.088078 102.372571 
L 138.090686 102.372571 
L 138.090686 96.892123 
L 144.093295 96.892123 
L 144.093295 95.522011 
L 145.016773 95.522011 
L 145.016773 94.151899 
L 145.940252 94.151899 
L 145.940252 91.754202 
L 148.248947 91.754202 
L 148.248947 91.411674 
L 148.710686 91.411674 
L 148.710686 89.699034 
L 149.634165 89.699034 
L 149.634165 87.986394 
L 150.557643 87.986394 
L 150.557643 87.643866 
L 152.866339 87.643866 
L 152.866339 84.561114 
L 154.251556 84.561114 
L 154.251556 83.876058 
L 161.639382 83.876058 
L 161.639382 80.108249 
L 163.486339 80.108249 
L 163.486339 76.340441 
L 164.871556 76.340441 
L 164.871556 75.997913 
L 168.10373 75.997913 
L 168.10373 73.942745 
L 169.027208 73.942745 
L 169.027208 72.915161 
L 169.950686 72.915161 
L 169.950686 70.517465 
L 172.721121 70.517465 
L 172.721121 64.35196 
L 175.029817 64.35196 
L 175.029817 63.324376 
L 176.415034 63.324376 
L 176.415034 61.611736 
L 176.876773 61.611736 
L 176.876773 61.269208 
L 179.647208 61.269208 
L 179.647208 56.816343 
L 180.108947 56.816343 
L 180.108947 55.788759 
L 180.570686 55.788759 
L 180.570686 52.363479 
L 186.111556 52.363479 
L 186.111556 52.020951 
L 187.958513 52.020951 
L 187.958513 51.678423 
L 188.420252 51.678423 
L 188.420252 50.308311 
L 188.881991 50.308311 
L 188.881991 48.253143 
L 190.728947 48.253143 
L 190.728947 47.225559 
L 191.190686 47.225559 
L 191.190686 46.197975 
L 191.652426 46.197975 
L 191.652426 44.485334 
L 192.114165 44.485334 
L 192.114165 43.115222 
L 193.037643 43.115222 
L 193.037643 42.772694 
L 194.8846 42.772694 
L 194.8846 42.087638 
L 195.346339 42.087638 
L 195.346339 39.347414 
L 195.808078 39.347414 
L 195.808078 37.634774 
L 196.731556 37.634774 
L 196.731556 37.292246 
L 197.655034 37.292246 
L 197.655034 35.579606 
L 199.96373 35.579606 
L 199.96373 34.209493 
L 200.887208 34.209493 
L 200.887208 33.524437 
L 201.810686 33.524437 
L 201.810686 30.784213 
L 203.195904 30.784213 
L 203.195904 29.756629 
L 207.813295 29.756629 
L 207.813295 26.673877 
L 210.121991 26.673877 
L 210.121991 25.303765 
L 211.968947 25.303765 
L 211.968947 25.303765 
" clip-path="url(#p1539305c6e)" style="fill: none; stroke: #168a73; stroke-width: 1.6; stroke-linecap: square"/>
   </g>
   <g id="line2d_8">
    <path d="M 63.288947 156.492 
L 63.288947 94.494427 
L 63.750686 94.494427 
L 63.750686 91.754202 
L 64.674165 91.754202 
L 64.674165 78.395609 
L 66.059382 78.395609 
L 66.059382 77.368025 
L 66.521121 77.368025 
L 66.521121 72.230105 
L 70.676773 72.230105 
L 70.676773 68.804824 
L 71.600252 68.804824 
L 71.600252 67.434712 
L 72.985469 67.434712 
L 72.985469 66.407128 
L 77.141121 66.407128 
L 77.141121 65.379544 
L 78.988078 65.379544 
L 78.988078 61.611736 
L 81.296773 61.611736 
L 81.296773 61.269208 
L 82.220252 61.269208 
L 82.220252 60.92668 
L 82.681991 60.92668 
L 82.681991 57.843928 
L 84.990686 57.843928 
L 84.990686 57.501399 
L 92.840252 57.501399 
L 92.840252 55.446231 
L 99.766339 55.446231 
L 99.766339 54.761175 
L 100.689817 54.761175 
L 100.689817 50.993367 
L 101.151556 50.993367 
L 101.151556 46.197975 
L 102.536773 46.197975 
L 102.536773 45.512918 
L 102.998513 45.512918 
L 102.998513 45.17039 
L 105.307208 45.17039 
L 105.307208 43.800278 
L 109.001121 43.800278 
L 109.001121 43.45775 
L 116.388947 43.45775 
L 116.388947 42.430166 
L 118.697643 42.430166 
L 118.697643 40.03247 
L 119.159382 40.03247 
L 119.159382 38.662358 
L 121.929817 38.662358 
L 121.929817 36.949718 
L 123.315034 36.949718 
L 123.315034 36.264662 
L 124.700252 36.264662 
L 124.700252 34.552022 
L 127.008947 34.552022 
L 127.008947 34.209493 
L 128.394165 34.209493 
L 128.394165 31.811797 
L 132.088078 31.811797 
L 132.088078 31.469269 
L 142.708078 31.469269 
L 142.708078 29.756629 
L 144.555034 29.756629 
L 144.555034 29.414101 
L 147.787208 29.414101 
L 147.787208 28.043989 
L 202.272426 28.043989 
L 202.272426 26.673877 
L 211.045469 26.673877 
L 211.045469 25.303765 
L 211.968947 25.303765 
L 211.968947 25.303765 
" clip-path="url(#p1539305c6e)" style="fill: none; stroke: #a33378; stroke-width: 1.6; stroke-linecap: square"/>
   </g>
   <g id="line2d_9">
    <path d="M 63.288947 156.492 
L 63.288947 151.35408 
L 65.135904 151.35408 
L 65.135904 142.790879 
L 65.597643 142.790879 
L 65.597643 132.17251 
L 66.059382 132.17251 
L 66.059382 130.45987 
L 66.521121 130.45987 
L 66.521121 125.321949 
L 66.98286 125.321949 
L 66.98286 120.184029 
L 68.829817 120.184029 
L 68.829817 112.648412 
L 70.215034 112.648412 
L 70.215034 80.108249 
L 71.138513 80.108249 
L 71.138513 71.202521 
L 72.985469 71.202521 
L 72.985469 66.0646 
L 76.679382 66.0646 
L 76.679382 60.92668 
L 81.758513 60.92668 
L 81.758513 57.843928 
L 85.914165 57.843928 
L 85.914165 56.131287 
L 86.375904 56.131287 
L 86.375904 55.446231 
L 86.837643 55.446231 
L 86.837643 53.048535 
L 91.916773 53.048535 
L 91.916773 52.706007 
L 94.225469 52.706007 
L 94.225469 50.308311 
L 98.84286 50.308311 
L 98.84286 49.623255 
L 101.613295 49.623255 
L 101.613295 46.540503 
L 102.998513 46.540503 
L 102.998513 46.197975 
L 103.460252 46.197975 
L 103.460252 45.512918 
L 103.921991 45.512918 
L 103.921991 44.827862 
L 105.307208 44.827862 
L 105.307208 44.485334 
L 123.315034 44.485334 
L 123.315034 42.430166 
L 125.161991 42.430166 
L 125.161991 41.74511 
L 133.473295 41.74511 
L 133.473295 40.717526 
L 134.858513 40.717526 
L 134.858513 38.662358 
L 140.861121 38.662358 
L 140.861121 37.292246 
L 155.636773 37.292246 
L 155.636773 35.922134 
L 156.560252 35.922134 
L 156.560252 32.839381 
L 158.407208 32.839381 
L 158.407208 32.496853 
L 163.948078 32.496853 
L 163.948078 30.784213 
L 165.333295 30.784213 
L 165.333295 28.386517 
L 178.72373 28.386517 
L 178.72373 28.043989 
L 180.570686 28.043989 
L 180.570686 26.673877 
L 210.121991 26.673877 
L 210.121991 25.303765 
L 211.968947 25.303765 
L 211.968947 25.303765 
" clip-path="url(#p1539305c6e)" style="fill: none; stroke: #666d78; stroke-width: 1.6; stroke-linecap: square"/>
   </g>
   <g id="line2d_10">
    <path d="M 63.288947 156.492 
L 211.968947 25.303765 
" clip-path="url(#p1539305c6e)" style="fill: none; stroke-dasharray: 2.96,1.28; stroke-dashoffset: 0; stroke: #adb6c0; stroke-width: 0.8"/>
   </g>
   <g id="patch_3">
    <path d="M 63.288947 156.492 
L 63.288947 22.68 
" style="fill: none; stroke: #000000; stroke-width: 0.8; stroke-linejoin: miter; stroke-linecap: square"/>
   </g>
   <g id="patch_4">
    <path d="M 63.288947 156.492 
L 211.968947 156.492 
" style="fill: none; stroke: #000000; stroke-width: 0.8; stroke-linejoin: miter; stroke-linecap: square"/>
   </g>
   <g id="text_9">
    <text style="font-weight: 700; font-size: 10px; font-family: 'DejaVu Sans'; text-anchor: start" x="63.288947" y="14.68" transform="rotate(-0 63.288947 14.68)">T11 · n = 705</text>
   </g>
  </g>
  <g id="axes_2">
   <g id="patch_5">
    <path d="M 295.811053 156.492 
L 444.491053 156.492 
L 444.491053 22.68 
L 295.811053 22.68 
z
" style="fill: #ffffff"/>
   </g>
   <g id="matplotlib.axis_3">
    <g id="xtick_4">
     <g id="line2d_11">
      <g>
       <use xlink:href="#mc99fe147b3" x="295.811053" y="156.492" style="stroke: #000000; stroke-width: 0.8"/>
      </g>
     </g>
     <g id="text_10">
      <text style="font-size: 10px; font-family: 'DejaVu Sans'; text-anchor: middle" x="295.811053" y="171.089656" transform="rotate(-0 295.811053 171.089656)">0.0</text>
     </g>
    </g>
    <g id="xtick_5">
     <g id="line2d_12">
      <g>
       <use xlink:href="#mc99fe147b3" x="370.151053" y="156.492" style="stroke: #000000; stroke-width: 0.8"/>
      </g>
     </g>
     <g id="text_11">
      <text style="font-size: 10px; font-family: 'DejaVu Sans'; text-anchor: middle" x="370.151053" y="171.089656" transform="rotate(-0 370.151053 171.089656)">0.5</text>
     </g>
    </g>
    <g id="xtick_6">
     <g id="line2d_13">
      <g>
       <use xlink:href="#mc99fe147b3" x="444.491053" y="156.492" style="stroke: #000000; stroke-width: 0.8"/>
      </g>
     </g>
     <g id="text_12">
      <text style="font-size: 10px; font-family: 'DejaVu Sans'; text-anchor: middle" x="444.491053" y="171.089656" transform="rotate(-0 444.491053 171.089656)">1.0</text>
     </g>
    </g>
    <g id="text_13">
     <text style="font-size: 11px; font-family: 'DejaVu Sans'; text-anchor: middle" x="370.151053" y="185.850281" transform="rotate(-0 370.151053 185.850281)">False-positive rate</text>
    </g>
   </g>
   <g id="matplotlib.axis_4">
    <g id="ytick_4">
     <g id="line2d_14">
      <g>
       <use xlink:href="#me223e1f1e1" x="295.811053" y="156.492" style="stroke: #000000; stroke-width: 0.8"/>
      </g>
     </g>
     <g id="text_14">
      <text style="font-size: 10px; font-family: 'DejaVu Sans'; text-anchor: end" x="288.811053" y="160.290828" transform="rotate(-0 288.811053 160.290828)">0.0</text>
     </g>
    </g>
    <g id="ytick_5">
     <g id="line2d_15">
      <g>
       <use xlink:href="#me223e1f1e1" x="295.811053" y="90.897882" style="stroke: #000000; stroke-width: 0.8"/>
      </g>
     </g>
     <g id="text_15">
      <text style="font-size: 10px; font-family: 'DejaVu Sans'; text-anchor: end" x="288.811053" y="94.69671" transform="rotate(-0 288.811053 94.69671)">0.5</text>
     </g>
    </g>
    <g id="ytick_6">
     <g id="line2d_16">
      <g>
       <use xlink:href="#me223e1f1e1" x="295.811053" y="25.303765" style="stroke: #000000; stroke-width: 0.8"/>
      </g>
     </g>
     <g id="text_16">
      <text style="font-size: 10px; font-family: 'DejaVu Sans'; text-anchor: end" x="288.811053" y="29.102593" transform="rotate(-0 288.811053 29.102593)">1.0</text>
     </g>
    </g>
   </g>
   <g id="line2d_17">
    <path d="M 295.811053 156.492 
L 295.811053 153.640082 
L 296.822481 153.640082 
L 296.822481 152.689442 
L 300.868195 152.689442 
L 302.891053 152.689442 
L 307.948195 152.689442 
L 308.959624 152.689442 
L 308.959624 151.738803 
L 308.959624 149.837524 
L 308.959624 148.886885 
L 310.982481 148.886885 
L 310.982481 146.034967 
L 315.028195 146.034967 
L 320.085338 146.034967 
L 320.085338 142.232409 
L 321.096767 142.232409 
L 323.119624 142.232409 
L 326.15391 142.232409 
L 328.176767 142.232409 
L 328.176767 138.429852 
L 332.222481 138.429852 
L 332.222481 130.824737 
L 332.222481 129.874097 
L 332.222481 127.972818 
L 334.245338 127.972818 
L 334.245338 122.268982 
L 338.291053 122.268982 
L 338.291053 119.417064 
L 340.31391 119.417064 
L 340.31391 115.614506 
L 344.359624 115.614506 
L 346.382481 115.614506 
L 346.382481 113.713228 
L 346.382481 109.91067 
L 349.416767 109.91067 
L 350.428195 109.91067 
L 350.428195 106.108113 
L 354.47391 106.108113 
L 354.47391 105.157473 
L 354.47391 103.256194 
L 359.531053 103.256194 
L 360.542481 103.256194 
L 360.542481 97.552358 
L 362.565338 97.552358 
L 370.656767 97.552358 
L 370.656767 93.749801 
L 371.668195 93.749801 
L 371.668195 89.947243 
L 373.691053 89.947243 
L 373.691053 88.996604 
L 374.702481 88.996604 
L 374.702481 88.045964 
L 374.702481 84.243407 
L 374.702481 83.292767 
L 382.79391 83.292767 
L 382.79391 79.49021 
L 382.79391 78.53957 
L 383.805338 78.53957 
L 383.805338 76.638292 
L 389.87391 76.638292 
L 392.908195 76.638292 
L 392.908195 72.835734 
L 396.95391 72.835734 
L 397.965338 72.835734 
L 397.965338 71.885095 
L 399.988195 71.885095 
L 404.03391 71.885095 
L 404.03391 68.082537 
L 405.045338 68.082537 
L 405.045338 67.131898 
L 405.045338 64.27998 
L 405.045338 60.477422 
L 406.056767 60.477422 
L 406.056767 56.674864 
L 410.102481 56.674864 
L 410.102481 54.773586 
L 411.11391 54.773586 
L 415.159624 54.773586 
L 417.182481 54.773586 
L 417.182481 53.822946 
L 421.228195 53.822946 
L 421.228195 52.872307 
L 421.228195 45.267192 
L 423.251053 45.267192 
L 426.285338 45.267192 
L 426.285338 43.365913 
L 426.285338 41.464634 
L 426.285338 38.612716 
L 427.296767 38.612716 
L 430.331053 38.612716 
L 430.331053 36.711437 
L 434.376767 36.711437 
L 434.376767 35.760798 
L 438.422481 35.760798 
L 438.422481 31.95824 
L 438.422481 29.106322 
L 440.445338 29.106322 
L 440.445338 28.155683 
L 442.468195 28.155683 
L 443.479624 28.155683 
L 443.479624 27.205043 
L 443.479624 25.303765 
L 444.491053 25.303765 
" clip-path="url(#pb94eee708c)" style="fill: none; stroke: #168a73; stroke-width: 1.6; stroke-linecap: square"/>
   </g>
   <g id="line2d_18">
    <path d="M 295.811053 156.492 
L 295.811053 153.640082 
L 295.811053 149.837524 
L 295.811053 148.886885 
L 295.811053 145.084327 
L 295.811053 144.133688 
L 295.811053 142.232409 
L 295.811053 139.380491 
L 295.811053 135.577934 
L 295.811053 133.676655 
L 295.811053 129.874097 
L 295.811053 127.972818 
L 295.811053 127.022179 
L 295.811053 124.170261 
L 295.811053 120.367703 
L 295.811053 112.762588 
L 295.811053 111.811949 
L 295.811053 109.91067 
L 296.822481 109.91067 
L 296.822481 108.009391 
L 296.822481 105.157473 
L 296.822481 103.256194 
L 296.822481 102.305555 
L 296.822481 96.601719 
L 296.822481 95.651079 
L 296.822481 93.749801 
L 296.822481 90.897882 
L 301.879624 90.897882 
L 305.925338 90.897882 
L 305.925338 88.996604 
L 305.925338 83.292767 
L 310.982481 83.292767 
L 310.982481 79.49021 
L 315.028195 79.49021 
L 315.028195 75.687652 
L 315.028195 74.737013 
L 315.028195 70.934455 
L 315.028195 68.082537 
L 315.028195 60.477422 
L 317.051053 60.477422 
L 317.051053 56.674864 
L 317.051053 53.822946 
L 317.051053 51.921668 
L 318.062481 51.921668 
L 318.062481 50.971028 
L 318.062481 47.168471 
L 319.07391 47.168471 
L 323.119624 47.168471 
L 323.119624 46.217831 
L 327.165338 46.217831 
L 327.165338 45.267192 
L 327.165338 37.662077 
L 333.23391 37.662077 
L 333.23391 33.859519 
L 333.23391 32.90888 
L 336.268195 32.90888 
L 337.279624 32.90888 
L 341.325338 32.90888 
L 341.325338 31.95824 
L 343.348195 31.95824 
L 347.39391 31.95824 
L 349.416767 31.95824 
L 351.439624 31.95824 
L 355.485338 31.95824 
L 356.496767 31.95824 
L 360.542481 31.95824 
L 361.55391 31.95824 
L 361.55391 30.056962 
L 362.565338 30.056962 
L 366.611053 30.056962 
L 366.611053 26.254404 
L 370.656767 26.254404 
L 372.679624 26.254404 
L 376.725338 26.254404 
L 380.771053 26.254404 
L 383.805338 26.254404 
L 385.828195 26.254404 
L 386.839624 26.254404 
L 390.885338 26.254404 
L 391.896767 26.254404 
L 393.919624 26.254404 
L 397.965338 26.254404 
L 399.988195 26.254404 
L 404.03391 26.254404 
L 405.045338 26.254404 
L 408.079624 26.254404 
L 410.102481 26.254404 
L 416.171053 26.254404 
L 420.216767 26.254404 
L 423.251053 26.254404 
L 429.319624 26.254404 
L 431.342481 26.254404 
L 436.399624 26.254404 
L 444.491053 26.254404 
L 444.491053 25.303765 
" clip-path="url(#pb94eee708c)" style="fill: none; stroke: #a33378; stroke-width: 1.6; stroke-linecap: square"/>
   </g>
   <g id="line2d_19">
    <path d="M 295.811053 156.492 
L 295.811053 153.640082 
L 295.811053 146.034967 
L 295.811053 143.183049 
L 295.811053 141.28177 
L 295.811053 137.479212 
L 295.811053 135.577934 
L 296.822481 135.577934 
L 296.822481 134.627294 
L 296.822481 128.923458 
L 296.822481 127.022179 
L 296.822481 123.219621 
L 296.822481 120.367703 
L 296.822481 119.417064 
L 300.868195 119.417064 
L 300.868195 115.614506 
L 300.868195 112.762588 
L 301.879624 112.762588 
L 301.879624 108.960031 
L 301.879624 108.009391 
L 301.879624 106.108113 
L 301.879624 103.256194 
L 301.879624 99.453637 
L 301.879624 95.651079 
L 301.879624 89.947243 
L 301.879624 86.144685 
L 305.925338 86.144685 
L 305.925338 85.194046 
L 305.925338 81.391488 
L 305.925338 75.687652 
L 305.925338 73.786373 
L 305.925338 72.835734 
L 309.971053 72.835734 
L 309.971053 69.033176 
L 309.971053 68.082537 
L 309.971053 64.27998 
L 311.99391 64.27998 
L 316.039624 64.27998 
L 316.039624 60.477422 
L 321.096767 60.477422 
L 321.096767 58.576143 
L 321.096767 54.773586 
L 323.119624 54.773586 
L 327.165338 54.773586 
L 328.176767 54.773586 
L 328.176767 50.971028 
L 330.199624 50.971028 
L 330.199624 47.168471 
L 334.245338 47.168471 
L 336.268195 47.168471 
L 336.268195 45.267192 
L 338.291053 45.267192 
L 338.291053 44.316552 
L 340.31391 44.316552 
L 340.31391 43.365913 
L 342.336767 43.365913 
L 342.336767 41.464634 
L 344.359624 41.464634 
L 344.359624 39.563355 
L 344.359624 35.760798 
L 344.359624 33.859519 
L 348.405338 33.859519 
L 349.416767 33.859519 
L 353.462481 33.859519 
L 354.47391 33.859519 
L 354.47391 30.056962 
L 358.519624 30.056962 
L 363.576767 30.056962 
L 365.599624 30.056962 
L 373.691053 30.056962 
L 375.71391 30.056962 
L 378.748195 30.056962 
L 378.748195 26.254404 
L 381.782481 26.254404 
L 385.828195 26.254404 
L 388.862481 26.254404 
L 392.908195 26.254404 
L 395.942481 26.254404 
L 397.965338 26.254404 
L 400.999624 26.254404 
L 407.068195 26.254404 
L 408.079624 26.254404 
L 408.079624 25.303765 
L 409.091053 25.303765 
L 411.11391 25.303765 
L 412.125338 25.303765 
L 414.148195 25.303765 
L 415.159624 25.303765 
L 423.251053 25.303765 
L 424.262481 25.303765 
L 428.308195 25.303765 
L 433.365338 25.303765 
L 437.411053 25.303765 
L 438.422481 25.303765 
L 440.445338 25.303765 
L 443.479624 25.303765 
L 444.491053 25.303765 
" clip-path="url(#pb94eee708c)" style="fill: none; stroke: #666d78; stroke-width: 1.6; stroke-linecap: square"/>
   </g>
   <g id="line2d_20">
    <path d="M 295.811053 156.492 
L 444.491053 25.303765 
" clip-path="url(#pb94eee708c)" style="fill: none; stroke-dasharray: 2.96,1.28; stroke-dashoffset: 0; stroke: #adb6c0; stroke-width: 0.8"/>
   </g>
   <g id="patch_6">
    <path d="M 295.811053 156.492 
L 295.811053 22.68 
" style="fill: none; stroke: #000000; stroke-width: 0.8; stroke-linejoin: miter; stroke-linecap: square"/>
   </g>
   <g id="patch_7">
    <path d="M 295.811053 156.492 
L 444.491053 156.492 
" style="fill: none; stroke: #000000; stroke-width: 0.8; stroke-linejoin: miter; stroke-linecap: square"/>
   </g>
   <g id="text_17">
    <text style="font-weight: 700; font-size: 10px; font-family: 'DejaVu Sans'; text-anchor: start" x="295.811053" y="14.68" transform="rotate(-0 295.811053 14.68)">T07 · n = 285</text>
   </g>
  </g>
  <g id="legend_1">
   <g id="line2d_21">
    <path d="M 88.927344 207.361656 
L 97.427344 207.361656 
L 105.927344 207.361656 
" style="fill: none; stroke: #168a73; stroke-width: 1.6; stroke-linecap: square"/>
   </g>
   <g id="text_18">
    <text style="font-size: 10px; font-family: 'DejaVu Sans'; text-anchor: start" x="113.927344" y="210.861656" transform="rotate(-0 113.927344 210.861656)">GAF/PCA6</text>
   </g>
   <g id="line2d_22">
    <path d="M 172.852344 207.361656 
L 181.352344 207.361656 
L 189.852344 207.361656 
" style="fill: none; stroke: #a33378; stroke-width: 1.6; stroke-linecap: square"/>
   </g>
   <g id="text_19">
    <text style="font-size: 10px; font-family: 'DejaVu Sans'; text-anchor: start" x="197.852344" y="210.861656" transform="rotate(-0 197.852344 210.861656)">GAF + polarity</text>
   </g>
   <g id="line2d_23">
    <path d="M 280.030469 207.361656 
L 288.530469 207.361656 
L 297.030469 207.361656 
" style="fill: none; stroke: #666d78; stroke-width: 1.6; stroke-linecap: square"/>
   </g>
   <g id="text_20">
    <text style="font-size: 10px; font-family: 'DejaVu Sans'; text-anchor: start" x="305.030469" y="210.861656" transform="rotate(-0 305.030469 210.861656)">Scalar controls</text>
   </g>
  </g>
 </g>
 <defs>
  <clipPath id="p1539305c6e">
   <rect x="63.288947" y="22.68" width="148.68" height="133.812"/>
  </clipPath>
  <clipPath id="pb94eee708c">
   <rect x="295.811053" y="22.68" width="148.68" height="133.812"/>
  </clipPath>
 </defs>
</svg>
