<?xml version="1.0" encoding="utf-8" standalone="no"?>
<!DOCTYPE svg PUBLIC "-//W3C//DTD SVG 1.1//EN"
  "http://www.w3.org/Graphics/SVG/1.1/DTD/svg11.dtd">
<svg xmlns:xlink="http://www.w3.org/1999/xlink" width="454.9376pt" height="224.468926pt" viewBox="0 0 454.9376 224.468926" xmlns="http://www.w3.org/2000/svg" version="1.1">
 <metadata>
  <rdf:RDF xmlns:dc="http://purl.org/dc/elements/1.1/" xmlns:cc="http://creativecommons.org/ns#" xmlns:rdf="http://www.w3.org/1999/02/22-rdf-syntax-ns#">
   <cc:Work>
    <dc:type rdf:resource="http://purl.org/dc/dcmitype/StillImage"/>
    <dc:date>2026-09-20T10:07:51.465670</dc:date>
    <dc:format>image/svg+xml</dc:format>
    <dc:creator>
     <cc:Agent>
      <dc:title>Matplotlib v3.11.1, https://matplotlib.org/</dc:title>
     </cc:Agent>
    </dc:creator>
   </cc:Work>
  </rdf:RDF>
 </metadata>
 <defs>
  <style type="text/css">*{stroke-linejoin: round; stroke-linecap: butt}</style>
 </defs>
 <g id="figure_1">
  <g id="patch_1">
   <path d="M 0 224.468926 
L 454.9376 224.468926 
L 454.9376 0 
L 0 0 
z
" style="fill: #ffffff"/>
  </g>
  <g id="axes_1">
   <g id="patch_2">
    <path d="M 53.0688 -65.245861 
L 446.1888 -65.245861 
L 446.1888 -207.047387 
L 53.0688 -207.047387 
z
" style="fill: #ffffff"/>
   </g>
   <g id="matplotlib.axis_1">
    <g id="xtick_1">
     <g id="line2d_1">
      <defs>
       <path id="m7ce2d9d57b" d="M 0 0 
L 0 3.5 
" style="stroke: #000000; stroke-width: 0.8"/>
      </defs>
      <g/>
     </g>
     <g id="text_1">
      <text style="font-size: 10px; font-family: 'DejaVu Sans'; text-anchor: middle" x="89.60709" y="-50.648205" transform="rotate(-0 89.60709 -50.648205)">GAF</text>
     </g>
    </g>
    <g id="xtick_2">
     <g id="line2d_2">
      <g/>
     </g>
     <g id="text_2">
      <text style="font-size: 10px; font-family: 'DejaVu Sans'; text-anchor: middle" x="142.94766" y="-50.647423" transform="rotate(-0 142.94766 -50.647423)">+ bit</text>
     </g>
    </g>
    <g id="xtick_3">
     <g id="line2d_3">
      <g/>
     </g>
     <g id="text_3">
      <text style="font-size: 10px; font-family: 'DejaVu Sans'; text-anchor: middle" x="196.28823" y="-50.647423" transform="rotate(-0 196.28823 -50.647423)">Scalars</text>
     </g>
    </g>
    <g id="xtick_4">
     <g id="line2d_4">
      <g/>
     </g>
     <g id="text_4">
      <text style="font-size: 10px; font-family: 'DejaVu Sans'; text-anchor: middle" x="302.96937" y="-50.648205" transform="rotate(-0 302.96937 -50.648205)">GAF</text>
     </g>
    </g>
    <g id="xtick_5">
     <g id="line2d_5">
      <g/>
     </g>
     <g id="text_5">
      <text style="font-size: 10px; font-family: 'DejaVu Sans'; text-anchor: middle" x="356.30994" y="-50.647423" transform="rotate(-0 356.30994 -50.647423)">+ bit</text>
     </g>
    </g>
    <g id="xtick_6">
     <g id="line2d_6">
      <g/>
     </g>
     <g id="text_6">
      <text style="font-size: 10px; font-family: 'DejaVu Sans'; text-anchor: middle" x="409.65051" y="-50.647423" transform="rotate(-0 409.65051 -50.647423)">Scalars</text>
     </g>
    </g>
   </g>
   <g id="matplotlib.axis_2">
    <g id="ytick_1">
     <g id="line2d_7">
      <path clip-path="url(#p0d72dee2b1)" style="fill: none; stroke: #dfe5eb; stroke-width: 0.6; stroke-linecap: square"/>
     </g>
     <g id="line2d_8">
      <defs>
       <path id="mc45f9be437" d="M 0 0 
L -3.5 0 
" style="stroke: #000000; stroke-width: 0.8"/>
      </defs>
      <g/>
     </g>
     <g id="text_7">
      <text style="font-size: 10px; font-family: 'DejaVu Sans'; text-anchor: end" x="46.0688" y="-68.537109" transform="rotate(-0 46.0688 -68.537109)">0.2</text>
     </g>
    </g>
    <g id="ytick_2">
     <g id="line2d_9">
      <path clip-path="url(#p0d72dee2b1)" style="fill: none; stroke: #dfe5eb; stroke-width: 0.6; stroke-linecap: square"/>
     </g>
     <g id="line2d_10">
      <g/>
     </g>
     <g id="text_8">
      <text style="font-size: 10px; font-family: 'DejaVu Sans'; text-anchor: end" x="46.0688" y="-96.897414" transform="rotate(-0 46.0688 -96.897414)">0.4</text>
     </g>
    </g>
    <g id="ytick_3">
     <g id="line2d_11">
      <path clip-path="url(#p0d72dee2b1)" style="fill: none; stroke: #dfe5eb; stroke-width: 0.6; stroke-linecap: square"/>
     </g>
     <g id="line2d_12">
      <g/>
     </g>
     <g id="text_9">
      <text style="font-size: 10px; font-family: 'DejaVu Sans'; text-anchor: end" x="46.0688" y="-125.25772" transform="rotate(-0 46.0688 -125.25772)">0.6</text>
     </g>
    </g>
    <g id="ytick_4">
     <g id="line2d_13">
      <path clip-path="url(#p0d72dee2b1)" style="fill: none; stroke: #dfe5eb; stroke-width: 0.6; stroke-linecap: square"/>
     </g>
     <g id="line2d_14">
      <g/>
     </g>
     <g id="text_10">
      <text style="font-size: 10px; font-family: 'DejaVu Sans'; text-anchor: end" x="46.0688" y="-153.618025" transform="rotate(-0 46.0688 -153.618025)">0.8</text>
     </g>
    </g>
    <g id="ytick_5">
     <g id="line2d_15">
      <path clip-path="url(#p0d72dee2b1)" style="fill: none; stroke: #dfe5eb; stroke-width: 0.6; stroke-linecap: square"/>
     </g>
     <g id="line2d_16">
      <g/>
     </g>
     <g id="text_11">
      <text style="font-size: 10px; font-family: 'DejaVu Sans'; text-anchor: end" x="46.0688" y="-181.97833" transform="rotate(-0 46.0688 -181.97833)">1.0</text>
     </g>
    </g>
    <g id="text_12">
     <text style="font-size: 11px; font-family: 'DejaVu Sans'; text-anchor: middle" x="23.523097" y="-136.146624" transform="rotate(-90 23.523097 -136.146624)">Directional AUROC</text>
    </g>
   </g>
   <g id="FillBetweenPolyCollection_1">
    <defs>
     <path id="m4b815823cd" d="M 89.897954 -328.854313 
L 89.316227 -328.854313 
L 89.340701 -329.085927 
L 89.402446 -329.31754 
L 89.475223 -329.549154 
L 89.535817 -329.780767 
L 89.574777 -330.012381 
L 89.594802 -330.243994 
L 89.603171 -330.475608 
L 89.606042 -330.707221 
L 89.606855 -330.938835 
L 89.607046 -331.170448 
L 89.607083 -331.402062 
L 89.607089 -331.633676 
L 89.607087 -331.865289 
L 89.607068 -332.096903 
L 89.606943 -332.328516 
L 89.606282 -332.56013 
L 89.603358 -332.791743 
L 89.592591 -333.023357 
L 89.559682 -333.25497 
L 89.476576 -333.486584 
L 89.304409 -333.718197 
L 89.015321 -333.949811 
L 88.630222 -334.181424 
L 88.240051 -334.413038 
L 87.966858 -334.644651 
L 87.865467 -334.876265 
L 87.838743 -335.107878 
L 87.654084 -335.339492 
L 87.071303 -335.571105 
L 85.994157 -335.802719 
L 84.530742 -336.034332 
L 82.910095 -336.265946 
L 81.306639 -336.497559 
L 79.705394 -336.729173 
L 77.93931 -336.960786 
L 75.909161 -337.1924 
L 73.802737 -337.424013 
L 72.061415 -337.655627 
L 71.077848 -337.88724 
L 70.937891 -338.118854 
L 71.473357 -338.350467 
L 72.48865 -338.582081 
L 73.85242 -338.813694 
L 75.414086 -339.045308 
L 76.935519 -339.276921 
L 78.140557 -339.508535 
L 78.851062 -339.740148 
L 79.146632 -339.971762 
L 79.414613 -340.203375 
L 80.142464 -340.434989 
L 81.549059 -340.666602 
L 83.397231 -340.898216 
L 85.167862 -341.12983 
L 86.386565 -341.361443 
L 86.807061 -341.593057 
L 86.421418 -341.82467 
L 85.447971 -342.056284 
L 84.329105 -342.287897 
L 83.617034 -342.519511 
L 83.711654 -342.751124 
L 84.629701 -342.982738 
L 86.017364 -343.214351 
L 87.39996 -343.445965 
L 88.450576 -343.677578 
L 89.085991 -343.909192 
L 89.388336 -344.140805 
L 89.47777 -344.372419 
L 89.438696 -344.604032 
L 89.317226 -344.835646 
L 89.153843 -345.067259 
L 89.006472 -345.298873 
L 88.938403 -345.530486 
L 88.981315 -345.7621 
L 89.110881 -345.993713 
L 89.260008 -346.225327 
L 89.355109 -346.45694 
L 89.344254 -346.688554 
L 89.209346 -346.920167 
L 88.976204 -347.151781 
L 88.721818 -347.383394 
L 88.553891 -347.615008 
L 88.553917 -347.846621 
L 88.723365 -348.078235 
L 88.985044 -348.309848 
L 89.239817 -348.541462 
L 89.425199 -348.773075 
L 89.53153 -349.004689 
L 89.580758 -349.236302 
L 89.599373 -349.467916 
L 89.605086 -349.699529 
L 89.606178 -349.931143 
L 89.605064 -350.162756 
L 89.600937 -350.39437 
L 89.590933 -350.625983 
L 89.571453 -350.857597 
L 89.541157 -351.089211 
L 89.504768 -351.320824 
L 89.473896 -351.552438 
L 89.461659 -351.784051 
L 89.752522 -351.784051 
L 89.752522 -351.784051 
L 89.740285 -351.552438 
L 89.709412 -351.320824 
L 89.673024 -351.089211 
L 89.642727 -350.857597 
L 89.623248 -350.625983 
L 89.613244 -350.39437 
L 89.609117 -350.162756 
L 89.608003 -349.931143 
L 89.609095 -349.699529 
L 89.614808 -349.467916 
L 89.633422 -349.236302 
L 89.682651 -349.004689 
L 89.788982 -348.773075 
L 89.974364 -348.541462 
L 90.229137 -348.309848 
L 90.490816 -348.078235 
L 90.660264 -347.846621 
L 90.66029 -347.615008 
L 90.492363 -347.383394 
L 90.237977 -347.151781 
L 90.004835 -346.920167 
L 89.869927 -346.688554 
L 89.859072 -346.45694 
L 89.954173 -346.225327 
L 90.1033 -345.993713 
L 90.232866 -345.7621 
L 90.275778 -345.530486 
L 90.207709 -345.298873 
L 90.060338 -345.067259 
L 89.896955 -344.835646 
L 89.775485 -344.604032 
L 89.736411 -344.372419 
L 89.825844 -344.140805 
L 90.128189 -343.909192 
L 90.763605 -343.677578 
L 91.814221 -343.445965 
L 93.196817 -343.214351 
L 94.58448 -342.982738 
L 95.502527 -342.751124 
L 95.597147 -342.519511 
L 94.885075 -342.287897 
L 93.76621 -342.056284 
L 92.792763 -341.82467 
L 92.40712 -341.593057 
L 92.827616 -341.361443 
L 94.046319 -341.12983 
L 95.81695 -340.898216 
L 97.665122 -340.666602 
L 99.071717 -340.434989 
L 99.799567 -340.203375 
L 100.067549 -339.971762 
L 100.363118 -339.740148 
L 101.073623 -339.508535 
L 102.278661 -339.276921 
L 103.800094 -339.045308 
L 105.361761 -338.813694 
L 106.725531 -338.582081 
L 107.740823 -338.350467 
L 108.27629 -338.118854 
L 108.136333 -337.88724 
L 107.152765 -337.655627 
L 105.411444 -337.424013 
L 103.30502 -337.1924 
L 101.27487 -336.960786 
L 99.508787 -336.729173 
L 97.907541 -336.497559 
L 96.304086 -336.265946 
L 94.683439 -336.034332 
L 93.220024 -335.802719 
L 92.142878 -335.571105 
L 91.560097 -335.339492 
L 91.375438 -335.107878 
L 91.348714 -334.876265 
L 91.247323 -334.644651 
L 90.97413 -334.413038 
L 90.583959 -334.181424 
L 90.19886 -333.949811 
L 89.909772 -333.718197 
L 89.737605 -333.486584 
L 89.654498 -333.25497 
L 89.62159 -333.023357 
L 89.610823 -332.791743 
L 89.607899 -332.56013 
L 89.607238 -332.328516 
L 89.607113 -332.096903 
L 89.607093 -331.865289 
L 89.607092 -331.633676 
L 89.607097 -331.402062 
L 89.607135 -331.170448 
L 89.607326 -330.938835 
L 89.608139 -330.707221 
L 89.61101 -330.475608 
L 89.619378 -330.243994 
L 89.639403 -330.012381 
L 89.678364 -329.780767 
L 89.738957 -329.549154 
L 89.811734 -329.31754 
L 89.873479 -329.085927 
L 89.897954 -328.854313 
z
" style="stroke: #168a73; stroke-opacity: 0.33"/>
    </defs>
    <g clip-path="url(#p0d72dee2b1)">
     <use xlink:href="#m4b815823cd" x="0" y="224.468926" style="fill: #168a73; fill-opacity: 0.33; stroke: #168a73; stroke-opacity: 0.33"/>
    </g>
   </g>
   <g id="FillBetweenPolyCollection_2">
    <defs>
     <path id="ma86afc1918" d="M 154.822676 -384.905626 
L 131.072645 -384.905626 
L 129.972379 -385.134965 
L 129.009036 -385.364304 
L 128.215625 -385.593643 
L 127.616024 -385.822982 
L 127.223437 -386.052321 
L 127.039814 -386.28166 
L 127.05623 -386.510999 
L 127.254117 -386.740338 
L 127.607153 -386.969677 
L 128.083528 -387.199016 
L 128.648336 -387.428355 
L 129.265816 -387.657693 
L 129.901255 -387.887032 
L 130.522455 -388.116371 
L 131.100738 -388.34571 
L 131.611593 -388.575049 
L 132.035077 -388.804388 
L 132.356143 -389.033727 
L 132.565005 -389.263066 
L 132.657559 -389.492405 
L 132.635799 -389.721744 
L 132.50802 -389.951083 
L 132.288564 -390.180422 
L 131.996852 -390.409761 
L 131.655548 -390.6391 
L 131.287891 -390.868439 
L 130.914469 -391.097778 
L 130.549938 -391.327117 
L 130.200367 -391.556456 
L 129.861893 -391.785795 
L 129.521252 -392.015134 
L 129.158388 -392.244473 
L 128.750981 -392.473812 
L 128.280202 -392.703151 
L 127.736718 -392.93249 
L 127.125721 -393.161829 
L 126.469862 -393.391167 
L 125.809265 -393.620506 
L 125.198311 -393.849845 
L 124.699477 -394.079184 
L 124.375116 -394.308523 
L 124.278461 -394.537862 
L 124.445335 -394.767201 
L 124.887964 -394.99654 
L 125.591923 -395.225879 
L 126.516744 -395.455218 
L 127.600102 -395.684557 
L 128.764916 -395.913896 
L 129.928287 -396.143235 
L 131.010954 -396.372574 
L 131.945913 -396.601913 
L 132.685057 -396.831252 
L 133.203007 -397.060591 
L 133.497779 -397.28993 
L 133.588388 -397.519269 
L 133.509921 -397.748608 
L 133.30701 -397.977947 
L 133.026765 -398.207286 
L 132.712345 -398.436625 
L 132.398117 -398.665964 
L 132.107099 -398.895303 
L 131.850892 -399.124641 
L 131.631856 -399.35398 
L 131.446854 -399.583319 
L 131.29159 -399.812658 
L 131.164498 -400.041997 
L 131.069261 -400.271336 
L 131.01541 -400.500675 
L 131.016868 -400.730014 
L 131.0888 -400.959353 
L 131.243526 -401.188692 
L 131.486426 -401.418031 
L 131.812826 -401.64737 
L 132.206615 -401.876709 
L 132.641003 -402.106048 
L 133.081395 -402.335387 
L 133.489943 -402.564726 
L 133.830999 -402.794065 
L 134.076534 -403.023404 
L 134.210573 -403.252743 
L 134.231874 -403.482082 
L 134.154414 -403.711421 
L 134.005597 -403.94076 
L 133.82253 -404.170099 
L 133.647011 -404.399438 
L 133.520075 -404.628777 
L 133.476989 -404.858115 
L 133.543433 -405.087454 
L 133.733336 -405.316793 
L 134.048528 -405.546132 
L 134.479996 -405.775471 
L 135.010328 -406.00481 
L 135.616742 -406.234149 
L 136.274153 -406.463488 
L 136.957807 -406.692827 
L 137.645206 -406.922166 
L 138.317268 -407.151505 
L 138.958779 -407.380844 
L 139.558345 -407.610183 
L 146.336976 -407.610183 
L 146.336976 -407.610183 
L 146.936542 -407.380844 
L 147.578052 -407.151505 
L 148.250114 -406.922166 
L 148.937514 -406.692827 
L 149.621167 -406.463488 
L 150.278579 -406.234149 
L 150.884993 -406.00481 
L 151.415324 -405.775471 
L 151.846793 -405.546132 
L 152.161984 -405.316793 
L 152.351887 -405.087454 
L 152.418331 -404.858115 
L 152.375246 -404.628777 
L 152.248309 -404.399438 
L 152.07279 -404.170099 
L 151.889724 -403.94076 
L 151.740907 -403.711421 
L 151.663446 -403.482082 
L 151.684747 -403.252743 
L 151.818786 -403.023404 
L 152.064322 -402.794065 
L 152.405378 -402.564726 
L 152.813925 -402.335387 
L 153.254317 -402.106048 
L 153.688706 -401.876709 
L 154.082495 -401.64737 
L 154.408895 -401.418031 
L 154.651794 -401.188692 
L 154.80652 -400.959353 
L 154.878453 -400.730014 
L 154.87991 -400.500675 
L 154.826059 -400.271336 
L 154.730822 -400.041997 
L 154.60373 -399.812658 
L 154.448467 -399.583319 
L 154.263465 -399.35398 
L 154.044429 -399.124641 
L 153.788221 -398.895303 
L 153.497204 -398.665964 
L 153.182976 -398.436625 
L 152.868555 -398.207286 
L 152.588311 -397.977947 
L 152.385399 -397.748608 
L 152.306933 -397.519269 
L 152.397541 -397.28993 
L 152.692314 -397.060591 
L 153.210264 -396.831252 
L 153.949408 -396.601913 
L 154.884367 -396.372574 
L 155.967033 -396.143235 
L 157.130404 -395.913896 
L 158.295218 -395.684557 
L 159.378577 -395.455218 
L 160.303398 -395.225879 
L 161.007356 -394.99654 
L 161.449985 -394.767201 
L 161.61686 -394.537862 
L 161.520204 -394.308523 
L 161.195843 -394.079184 
L 160.697009 -393.849845 
L 160.086055 -393.620506 
L 159.425459 -393.391167 
L 158.7696 -393.161829 
L 158.158602 -392.93249 
L 157.615118 -392.703151 
L 157.14434 -392.473812 
L 156.736932 -392.244473 
L 156.374069 -392.015134 
L 156.033427 -391.785795 
L 155.694954 -391.556456 
L 155.345382 -391.327117 
L 154.980851 -391.097778 
L 154.607429 -390.868439 
L 154.239773 -390.6391 
L 153.898468 -390.409761 
L 153.606757 -390.180422 
L 153.387301 -389.951083 
L 153.259522 -389.721744 
L 153.237761 -389.492405 
L 153.330315 -389.263066 
L 153.539177 -389.033727 
L 153.860244 -388.804388 
L 154.283728 -388.575049 
L 154.794583 -388.34571 
L 155.372866 -388.116371 
L 155.994065 -387.887032 
L 156.629504 -387.657693 
L 157.246984 -387.428355 
L 157.811793 -387.199016 
L 158.288168 -386.969677 
L 158.641203 -386.740338 
L 158.839091 -386.510999 
L 158.855506 -386.28166 
L 158.671883 -386.052321 
L 158.279296 -385.822982 
L 157.679695 -385.593643 
L 156.886284 -385.364304 
L 155.922941 -385.134965 
L 154.822676 -384.905626 
z
" style="stroke: #a33378; stroke-opacity: 0.33"/>
    </defs>
    <g clip-path="url(#p0d72dee2b1)">
     <use xlink:href="#ma86afc1918" x="0" y="224.468926" style="fill: #a33378; fill-opacity: 0.33; stroke: #a33378; stroke-opacity: 0.33"/>
    </g>
   </g>
   <g id="FillBetweenPolyCollection_3">
    <defs>
     <path id="m2e54a7eda2" d="M 209.080926 -384.032474 
L 183.495534 -384.032474 
L 182.386252 -384.204097 
L 181.430562 -384.375721 
L 180.654287 -384.547345 
L 180.070555 -384.718968 
L 179.678868 -384.890592 
L 179.465597 -385.062216 
L 179.405842 -385.23384 
L 179.466406 -385.405463 
L 179.609502 -385.577087 
L 179.796747 -385.748711 
L 179.992939 -385.920334 
L 180.169173 -386.091958 
L 180.304943 -386.263582 
L 180.389005 -386.435206 
L 180.418969 -386.606829 
L 180.399734 -386.778453 
L 180.341078 -386.950077 
L 180.254799 -387.1217 
L 180.151883 -387.293324 
L 180.040151 -387.464948 
L 179.922794 -387.636571 
L 179.79802 -387.808195 
L 179.659907 -387.979819 
L 179.50032 -388.151443 
L 179.311564 -388.323066 
L 179.089302 -388.49469 
L 178.835148 -388.666314 
L 178.558377 -388.837937 
L 178.276319 -389.009561 
L 178.013178 -389.181185 
L 177.797371 -389.352808 
L 177.657703 -389.524432 
L 177.619031 -389.696056 
L 177.698156 -389.86768 
L 177.900738 -390.039303 
L 178.219841 -390.210927 
L 178.636447 -390.382551 
L 179.121929 -390.554174 
L 179.642077 -390.725798 
L 180.16202 -390.897422 
L 180.651201 -391.069046 
L 181.087591 -391.240669 
L 181.46047 -391.412293 
L 181.771395 -391.583917 
L 182.033273 -391.75554 
L 182.2678 -391.927164 
L 182.501735 -392.098788 
L 182.762635 -392.270411 
L 183.074709 -392.442035 
L 183.455328 -392.613659 
L 183.912647 -392.785283 
L 184.444538 -392.956906 
L 185.038881 -393.12853 
L 185.675086 -393.300154 
L 186.326557 -393.471777 
L 186.963755 -393.643401 
L 187.557455 -393.815025 
L 188.081787 -393.986649 
L 188.516721 -394.158272 
L 188.849708 -394.329896 
L 189.07631 -394.50152 
L 189.199794 -394.673143 
L 189.229788 -394.844767 
L 189.180246 -395.016391 
L 189.067056 -395.188014 
L 188.905692 -395.359638 
L 188.709292 -395.531262 
L 188.487453 -395.702886 
L 188.245931 -395.874509 
L 187.987244 -396.046133 
L 187.711998 -396.217757 
L 187.420653 -396.38938 
L 187.115329 -396.561004 
L 186.801251 -396.732628 
L 186.487517 -396.904252 
L 186.186983 -397.075875 
L 185.915243 -397.247499 
L 185.688858 -397.419123 
L 185.523143 -397.590746 
L 185.429944 -397.76237 
L 185.415819 -397.933994 
L 185.481042 -398.105617 
L 185.619644 -398.277241 
L 185.820549 -398.448865 
L 186.069627 -398.620489 
L 186.352283 -398.792112 
L 186.656085 -398.963736 
L 186.972902 -399.13536 
L 187.300108 -399.306983 
L 187.640611 -399.478607 
L 188.001689 -399.650231 
L 188.392911 -399.821855 
L 188.823561 -399.993478 
L 189.300121 -400.165102 
L 189.824316 -400.336726 
L 190.392081 -400.508349 
L 190.993604 -400.679973 
L 191.61438 -400.851597 
L 192.236982 -401.02322 
L 200.339478 -401.02322 
L 200.339478 -401.02322 
L 200.96208 -400.851597 
L 201.582856 -400.679973 
L 202.18438 -400.508349 
L 202.752144 -400.336726 
L 203.276339 -400.165102 
L 203.7529 -399.993478 
L 204.183549 -399.821855 
L 204.574771 -399.650231 
L 204.93585 -399.478607 
L 205.276352 -399.306983 
L 205.603559 -399.13536 
L 205.920375 -398.963736 
L 206.224177 -398.792112 
L 206.506833 -398.620489 
L 206.755911 -398.448865 
L 206.956816 -398.277241 
L 207.095418 -398.105617 
L 207.160642 -397.933994 
L 207.146517 -397.76237 
L 207.053317 -397.590746 
L 206.887603 -397.419123 
L 206.661217 -397.247499 
L 206.389477 -397.075875 
L 206.088943 -396.904252 
L 205.775209 -396.732628 
L 205.461131 -396.561004 
L 205.155807 -396.38938 
L 204.864463 -396.217757 
L 204.589216 -396.046133 
L 204.330529 -395.874509 
L 204.089008 -395.702886 
L 203.867168 -395.531262 
L 203.670768 -395.359638 
L 203.509405 -395.188014 
L 203.396214 -395.016391 
L 203.346672 -394.844767 
L 203.376666 -394.673143 
L 203.50015 -394.50152 
L 203.726752 -394.329896 
L 204.059739 -394.158272 
L 204.494673 -393.986649 
L 205.019005 -393.815025 
L 205.612705 -393.643401 
L 206.249903 -393.471777 
L 206.901374 -393.300154 
L 207.537579 -393.12853 
L 208.131922 -392.956906 
L 208.663813 -392.785283 
L 209.121132 -392.613659 
L 209.501751 -392.442035 
L 209.813825 -392.270411 
L 210.074726 -392.098788 
L 210.30866 -391.927164 
L 210.543187 -391.75554 
L 210.805065 -391.583917 
L 211.11599 -391.412293 
L 211.488869 -391.240669 
L 211.925259 -391.069046 
L 212.41444 -390.897422 
L 212.934383 -390.725798 
L 213.454531 -390.554174 
L 213.940013 -390.382551 
L 214.356619 -390.210927 
L 214.675722 -390.039303 
L 214.878305 -389.86768 
L 214.95743 -389.696056 
L 214.918757 -389.524432 
L 214.779089 -389.352808 
L 214.563282 -389.181185 
L 214.300142 -389.009561 
L 214.018083 -388.837937 
L 213.741312 -388.666314 
L 213.487158 -388.49469 
L 213.264896 -388.323066 
L 213.07614 -388.151443 
L 212.916553 -387.979819 
L 212.77844 -387.808195 
L 212.653667 -387.636571 
L 212.53631 -387.464948 
L 212.424578 -387.293324 
L 212.321661 -387.1217 
L 212.235382 -386.950077 
L 212.176727 -386.778453 
L 212.157491 -386.606829 
L 212.187455 -386.435206 
L 212.271518 -386.263582 
L 212.407287 -386.091958 
L 212.583521 -385.920334 
L 212.779713 -385.748711 
L 212.966958 -385.577087 
L 213.110054 -385.405463 
L 213.170618 -385.23384 
L 213.110863 -385.062216 
L 212.897592 -384.890592 
L 212.505905 -384.718968 
L 211.922173 -384.547345 
L 211.145898 -384.375721 
L 210.190208 -384.204097 
L 209.080926 -384.032474 
z
" style="stroke: #666d78; stroke-opacity: 0.33"/>
    </defs>
    <g clip-path="url(#p0d72dee2b1)">
     <use xlink:href="#m2e54a7eda2" x="0" y="224.468926" style="fill: #666d78; fill-opacity: 0.33; stroke: #666d78; stroke-opacity: 0.33"/>
    </g>
   </g>
   <g id="FillBetweenPolyCollection_4">
    <defs>
     <path id="mea96aa4863" d="M 303.456048 -306.427109 
L 302.482692 -306.427109 
L 302.343688 -306.903574 
L 302.185514 -307.380038 
L 302.017197 -307.856502 
L 301.85253 -308.332967 
L 301.707281 -308.809431 
L 301.594597 -309.285896 
L 301.520131 -309.76236 
L 301.47904 -310.238825 
L 301.456641 -310.715289 
L 301.433105 -311.191754 
L 301.3908 -311.668218 
L 301.321513 -312.144683 
L 301.230547 -312.621147 
L 301.135831 -313.097611 
L 301.062159 -313.574076 
L 301.032687 -314.05054 
L 301.0609 -314.527005 
L 301.146015 -315.003469 
L 301.273352 -315.479934 
L 301.419271 -315.956398 
L 301.558649 -316.432863 
L 301.672119 -316.909327 
L 301.750615 -317.385792 
L 301.795887 -317.862256 
L 301.817159 -318.33872 
L 301.825431 -318.815185 
L 301.827663 -319.291649 
L 301.82296 -319.768114 
L 301.801945 -320.244578 
L 301.749149 -320.721043 
L 301.647047 -321.197507 
L 301.479967 -321.673972 
L 301.236544 -322.150436 
L 300.910448 -322.626901 
L 300.500067 -323.103365 
L 300.007995 -323.579829 
L 299.44061 -324.056294 
L 298.807222 -324.532758 
L 298.118092 -325.009223 
L 297.381436 -325.485687 
L 296.60085 -325.962152 
L 295.775283 -326.438616 
L 294.902844 -326.915081 
L 293.987439 -327.391545 
L 293.044956 -327.86801 
L 292.104991 -328.344474 
L 291.205944 -328.820939 
L 290.384677 -329.297403 
L 289.664921 -329.773867 
L 289.049411 -330.250332 
L 288.518867 -330.726796 
L 288.037801 -331.203261 
L 287.564672 -331.679725 
L 287.063419 -332.15619 
L 286.514356 -332.632654 
L 285.923397 -333.109119 
L 285.32815 -333.585583 
L 284.797963 -334.062048 
L 284.424339 -334.538512 
L 284.30017 -335.014976 
L 284.49136 -335.491441 
L 285.010108 -335.967905 
L 285.801679 -336.44437 
L 286.752991 -336.920834 
L 287.722508 -337.397299 
L 288.580885 -337.873763 
L 289.246224 -338.350228 
L 289.700156 -338.826692 
L 289.980222 -339.303157 
L 290.15521 -339.779621 
L 290.296973 -340.256085 
L 290.461402 -340.73255 
L 290.683905 -341.209014 
L 290.985709 -341.685479 
L 291.382109 -342.161943 
L 291.884942 -342.638408 
L 292.497531 -343.114872 
L 293.206747 -343.591337 
L 293.979448 -344.067801 
L 294.767989 -344.544266 
L 295.523765 -345.02073 
L 296.212692 -345.497194 
L 296.825128 -345.973659 
L 297.37556 -346.450123 
L 297.892458 -346.926588 
L 298.403038 -347.403052 
L 298.919305 -347.879517 
L 299.430373 -348.355981 
L 299.903055 -348.832446 
L 300.28976 -349.30891 
L 300.540992 -349.785375 
L 300.619276 -350.261839 
L 300.511514 -350.738304 
L 300.237027 -351.214768 
L 299.848912 -351.691232 
L 299.427179 -352.167697 
L 299.063997 -352.644161 
L 298.844025 -353.120626 
L 298.825087 -353.59709 
L 307.113653 -353.59709 
L 307.113653 -353.59709 
L 307.094715 -353.120626 
L 306.874743 -352.644161 
L 306.511561 -352.167697 
L 306.089827 -351.691232 
L 305.701713 -351.214768 
L 305.427226 -350.738304 
L 305.319464 -350.261839 
L 305.397748 -349.785375 
L 305.648979 -349.30891 
L 306.035684 -348.832446 
L 306.508367 -348.355981 
L 307.019435 -347.879517 
L 307.535702 -347.403052 
L 308.046282 -346.926588 
L 308.56318 -346.450123 
L 309.113612 -345.973659 
L 309.726048 -345.497194 
L 310.414975 -345.02073 
L 311.170751 -344.544266 
L 311.959292 -344.067801 
L 312.731993 -343.591337 
L 313.441209 -343.114872 
L 314.053797 -342.638408 
L 314.556631 -342.161943 
L 314.953031 -341.685479 
L 315.254835 -341.209014 
L 315.477338 -340.73255 
L 315.641767 -340.256085 
L 315.78353 -339.779621 
L 315.958518 -339.303157 
L 316.238583 -338.826692 
L 316.692515 -338.350228 
L 317.357855 -337.873763 
L 318.216232 -337.397299 
L 319.185749 -336.920834 
L 320.137061 -336.44437 
L 320.928632 -335.967905 
L 321.44738 -335.491441 
L 321.638569 -335.014976 
L 321.514401 -334.538512 
L 321.140777 -334.062048 
L 320.61059 -333.585583 
L 320.015342 -333.109119 
L 319.424384 -332.632654 
L 318.875321 -332.15619 
L 318.374067 -331.679725 
L 317.900939 -331.203261 
L 317.419873 -330.726796 
L 316.889329 -330.250332 
L 316.273819 -329.773867 
L 315.554063 -329.297403 
L 314.732796 -328.820939 
L 313.833749 -328.344474 
L 312.893784 -327.86801 
L 311.951301 -327.391545 
L 311.035896 -326.915081 
L 310.163456 -326.438616 
L 309.337889 -325.962152 
L 308.557303 -325.485687 
L 307.820648 -325.009223 
L 307.131518 -324.532758 
L 306.49813 -324.056294 
L 305.930745 -323.579829 
L 305.438673 -323.103365 
L 305.028292 -322.626901 
L 304.702196 -322.150436 
L 304.458772 -321.673972 
L 304.291693 -321.197507 
L 304.189591 -320.721043 
L 304.136794 -320.244578 
L 304.11578 -319.768114 
L 304.111077 -319.291649 
L 304.113308 -318.815185 
L 304.121581 -318.33872 
L 304.142853 -317.862256 
L 304.188124 -317.385792 
L 304.26662 -316.909327 
L 304.380091 -316.432863 
L 304.519469 -315.956398 
L 304.665388 -315.479934 
L 304.792725 -315.003469 
L 304.87784 -314.527005 
L 304.906053 -314.05054 
L 304.876581 -313.574076 
L 304.802909 -313.097611 
L 304.708193 -312.621147 
L 304.617227 -312.144683 
L 304.54794 -311.668218 
L 304.505635 -311.191754 
L 304.482099 -310.715289 
L 304.4597 -310.238825 
L 304.418609 -309.76236 
L 304.344142 -309.285896 
L 304.231459 -308.809431 
L 304.08621 -308.332967 
L 303.921543 -307.856502 
L 303.753226 -307.380038 
L 303.595052 -306.903574 
L 303.456048 -306.427109 
z
" style="stroke: #168a73; stroke-opacity: 0.33"/>
    </defs>
    <g clip-path="url(#p0d72dee2b1)">
     <use xlink:href="#mea96aa4863" x="0" y="224.468926" style="fill: #168a73; fill-opacity: 0.33; stroke: #168a73; stroke-opacity: 0.33"/>
    </g>
   </g>
   <g id="FillBetweenPolyCollection_5">
    <defs>
     <path id="ma667e0f78a" d="M 357.291684 -381.528841 
L 355.328195 -381.528841 
L 355.209247 -381.743129 
L 355.100763 -381.957417 
L 355.005925 -382.171705 
L 354.931385 -382.385993 
L 354.887091 -382.600281 
L 354.883426 -382.814569 
L 354.92653 -383.028857 
L 355.013902 -383.243146 
L 355.13251 -383.457434 
L 355.260691 -383.671722 
L 355.373487 -383.88601 
L 355.449622 -384.100298 
L 355.477726 -384.314586 
L 355.459706 -384.528874 
L 355.410192 -384.743162 
L 355.352263 -384.95745 
L 355.310802 -385.171738 
L 355.305567 -385.386026 
L 355.34613 -385.600314 
L 355.430172 -385.814602 
L 355.545436 -386.02889 
L 355.67435 -386.243178 
L 355.799486 -386.457466 
L 355.907976 -386.671754 
L 355.993663 -386.886042 
L 356.056797 -387.10033 
L 356.101975 -387.314618 
L 356.135437 -387.528906 
L 356.162768 -387.743194 
L 356.18759 -387.957483 
L 356.211341 -388.171771 
L 356.233825 -388.386059 
L 356.254064 -388.600347 
L 356.271057 -388.814635 
L 356.284197 -389.028923 
L 356.293286 -389.243211 
L 356.298213 -389.457499 
L 356.298323 -389.671787 
L 356.291503 -389.886075 
L 356.272902 -390.100363 
L 356.233324 -390.314651 
L 356.157492 -390.528939 
L 356.022846 -390.743227 
L 355.799954 -390.957515 
L 355.45585 -391.171803 
L 354.961167 -391.386091 
L 354.300612 -391.600379 
L 353.484306 -391.814667 
L 352.555654 -392.028955 
L 351.590857 -392.243243 
L 350.687108 -392.457532 
L 349.940537 -392.67182 
L 349.419802 -392.886108 
L 349.144265 -393.100396 
L 349.075132 -393.314684 
L 349.123615 -393.528972 
L 349.173865 -393.74326 
L 349.113059 -393.957548 
L 348.858775 -394.171836 
L 348.375364 -394.386124 
L 347.675348 -394.600412 
L 346.807073 -394.8147 
L 345.834171 -395.028988 
L 344.814643 -395.243276 
L 343.786987 -395.457564 
L 342.767881 -395.671852 
L 341.761257 -395.88614 
L 340.773907 -396.100428 
L 339.829958 -396.314716 
L 338.977232 -396.529004 
L 338.282408 -396.743292 
L 337.817104 -396.95758 
L 337.64074 -397.171869 
L 337.786519 -397.386157 
L 338.25431 -397.600445 
L 339.010787 -397.814733 
L 339.995034 -398.029021 
L 341.127739 -398.243309 
L 342.323036 -398.457597 
L 343.502263 -398.671885 
L 344.607651 -398.886173 
L 345.612226 -399.100461 
L 346.521831 -399.314749 
L 347.367274 -399.529037 
L 348.188528 -399.743325 
L 349.016514 -399.957613 
L 349.859126 -400.171901 
L 350.696243 -400.386189 
L 351.484718 -400.600477 
L 352.170793 -400.814765 
L 352.70554 -401.029053 
L 353.059 -401.243341 
L 353.229725 -401.457629 
L 353.247714 -401.671917 
L 353.169919 -401.886206 
L 353.068925 -402.100494 
L 353.017155 -402.314782 
L 353.070625 -402.52907 
L 353.25692 -402.743358 
L 359.36296 -402.743358 
L 359.36296 -402.743358 
L 359.549255 -402.52907 
L 359.602724 -402.314782 
L 359.550954 -402.100494 
L 359.44996 -401.886206 
L 359.372165 -401.671917 
L 359.390155 -401.457629 
L 359.56088 -401.243341 
L 359.91434 -401.029053 
L 360.449086 -400.814765 
L 361.135161 -400.600477 
L 361.923637 -400.386189 
L 362.760754 -400.171901 
L 363.603365 -399.957613 
L 364.431351 -399.743325 
L 365.252605 -399.529037 
L 366.098048 -399.314749 
L 367.007654 -399.100461 
L 368.012229 -398.886173 
L 369.117616 -398.671885 
L 370.296843 -398.457597 
L 371.49214 -398.243309 
L 372.624845 -398.029021 
L 373.609093 -397.814733 
L 374.36557 -397.600445 
L 374.83336 -397.386157 
L 374.979139 -397.171869 
L 374.802776 -396.95758 
L 374.337472 -396.743292 
L 373.642648 -396.529004 
L 372.789922 -396.314716 
L 371.845972 -396.100428 
L 370.858623 -395.88614 
L 369.851999 -395.671852 
L 368.832892 -395.457564 
L 367.805237 -395.243276 
L 366.785709 -395.028988 
L 365.812807 -394.8147 
L 364.944532 -394.600412 
L 364.244516 -394.386124 
L 363.761105 -394.171836 
L 363.506821 -393.957548 
L 363.446015 -393.74326 
L 363.496264 -393.528972 
L 363.544747 -393.314684 
L 363.475615 -393.100396 
L 363.200078 -392.886108 
L 362.679343 -392.67182 
L 361.932772 -392.457532 
L 361.029023 -392.243243 
L 360.064226 -392.028955 
L 359.135573 -391.814667 
L 358.319268 -391.600379 
L 357.658712 -391.386091 
L 357.16403 -391.171803 
L 356.819926 -390.957515 
L 356.597034 -390.743227 
L 356.462387 -390.528939 
L 356.386556 -390.314651 
L 356.346978 -390.100363 
L 356.328377 -389.886075 
L 356.321556 -389.671787 
L 356.321667 -389.457499 
L 356.326593 -389.243211 
L 356.335683 -389.028923 
L 356.348822 -388.814635 
L 356.365816 -388.600347 
L 356.386054 -388.386059 
L 356.408538 -388.171771 
L 356.43229 -387.957483 
L 356.457112 -387.743194 
L 356.484442 -387.528906 
L 356.517905 -387.314618 
L 356.563083 -387.10033 
L 356.626217 -386.886042 
L 356.711903 -386.671754 
L 356.820393 -386.457466 
L 356.945529 -386.243178 
L 357.074443 -386.02889 
L 357.189708 -385.814602 
L 357.273749 -385.600314 
L 357.314312 -385.386026 
L 357.309078 -385.171738 
L 357.267616 -384.95745 
L 357.209688 -384.743162 
L 357.160174 -384.528874 
L 357.142153 -384.314586 
L 357.170257 -384.100298 
L 357.246393 -383.88601 
L 357.359188 -383.671722 
L 357.48737 -383.457434 
L 357.605977 -383.243146 
L 357.693349 -383.028857 
L 357.736454 -382.814569 
L 357.732788 -382.600281 
L 357.688494 -382.385993 
L 357.613954 -382.171705 
L 357.519117 -381.957417 
L 357.410632 -381.743129 
L 357.291684 -381.528841 
z
" style="stroke: #a33378; stroke-opacity: 0.33"/>
    </defs>
    <g clip-path="url(#p0d72dee2b1)">
     <use xlink:href="#ma667e0f78a" x="0" y="224.468926" style="fill: #a33378; fill-opacity: 0.33; stroke: #a33378; stroke-opacity: 0.33"/>
    </g>
   </g>
   <g id="FillBetweenPolyCollection_6">
    <defs>
     <path id="m1cba1db567" d="M 409.853292 -347.223183 
L 409.447727 -347.223183 
L 409.480115 -347.859778 
L 409.549414 -348.496373 
L 409.608159 -349.132968 
L 409.637983 -349.769563 
L 409.647893 -350.406158 
L 409.650124 -351.042753 
L 409.650469 -351.679348 
L 409.650507 -352.315943 
L 409.650509 -352.952538 
L 409.65051 -353.589133 
L 409.65051 -354.225728 
L 409.65051 -354.862323 
L 409.65051 -355.498918 
L 409.65051 -356.135513 
L 409.65051 -356.772108 
L 409.65051 -357.408703 
L 409.65051 -358.045298 
L 409.65051 -358.681892 
L 409.65051 -359.318487 
L 409.65051 -359.955082 
L 409.65051 -360.591677 
L 409.65051 -361.228272 
L 409.65051 -361.864867 
L 409.65051 -362.501462 
L 409.65051 -363.138057 
L 409.65051 -363.774652 
L 409.65051 -364.411247 
L 409.65051 -365.047842 
L 409.65051 -365.684437 
L 409.65051 -366.321032 
L 409.65051 -366.957627 
L 409.65051 -367.594222 
L 409.65051 -368.230817 
L 409.65051 -368.867412 
L 409.65051 -369.504007 
L 409.65051 -370.140602 
L 409.65051 -370.777197 
L 409.65051 -371.413792 
L 409.65051 -372.050387 
L 409.65051 -372.686982 
L 409.65051 -373.323576 
L 409.65051 -373.960171 
L 409.65051 -374.596766 
L 409.65051 -375.233361 
L 409.65051 -375.869956 
L 409.65051 -376.506551 
L 409.65051 -377.143146 
L 409.65051 -377.779741 
L 409.65051 -378.416336 
L 409.650508 -379.052931 
L 409.650483 -379.689526 
L 409.650195 -380.326121 
L 409.647844 -380.962716 
L 409.634592 -381.599311 
L 409.583382 -382.235906 
L 409.450628 -382.872501 
L 409.230258 -383.509096 
L 409.026434 -384.145691 
L 408.994297 -384.782286 
L 409.151225 -385.418881 
L 409.326451 -386.055476 
L 409.32246 -386.692071 
L 409.067015 -387.328666 
L 408.646852 -387.96526 
L 408.176668 -388.601855 
L 407.517429 -389.23845 
L 406.232519 -389.875045 
L 404.085102 -390.51164 
L 401.569385 -391.148235 
L 399.50755 -391.78483 
L 397.848096 -392.421425 
L 395.646285 -393.05802 
L 392.844763 -393.694615 
L 390.98131 -394.33121 
L 391.536739 -394.967805 
L 394.520079 -395.6044 
L 398.637957 -396.240995 
L 402.258186 -396.87759 
L 404.557278 -397.514185 
L 405.888403 -398.15078 
L 406.931464 -398.787375 
L 407.878444 -399.42397 
L 408.599202 -400.060565 
L 409.070161 -400.69716 
L 409.366802 -401.333755 
L 409.527697 -401.97035 
L 409.555889 -402.606945 
L 409.435868 -403.243539 
L 409.163817 -403.880134 
L 408.849291 -404.516729 
L 408.715151 -405.153324 
L 408.865416 -405.789919 
L 409.126978 -406.426514 
L 409.235589 -407.063109 
L 409.110946 -407.699704 
L 408.913828 -408.336299 
L 408.868714 -408.972894 
L 409.031687 -409.609489 
L 409.273731 -410.246084 
L 410.027288 -410.246084 
L 410.027288 -410.246084 
L 410.269332 -409.609489 
L 410.432305 -408.972894 
L 410.387191 -408.336299 
L 410.190073 -407.699704 
L 410.065431 -407.063109 
L 410.174041 -406.426514 
L 410.435603 -405.789919 
L 410.585869 -405.153324 
L 410.451728 -404.516729 
L 410.137202 -403.880134 
L 409.865151 -403.243539 
L 409.745131 -402.606945 
L 409.773322 -401.97035 
L 409.934218 -401.333755 
L 410.230858 -400.69716 
L 410.701817 -400.060565 
L 411.422575 -399.42397 
L 412.369556 -398.787375 
L 413.412616 -398.15078 
L 414.743741 -397.514185 
L 417.042833 -396.87759 
L 420.663062 -396.240995 
L 424.78094 -395.6044 
L 427.76428 -394.967805 
L 428.319709 -394.33121 
L 426.456256 -393.694615 
L 423.654735 -393.05802 
L 421.452923 -392.421425 
L 419.793469 -391.78483 
L 417.731635 -391.148235 
L 415.215917 -390.51164 
L 413.0685 -389.875045 
L 411.78359 -389.23845 
L 411.124351 -388.601855 
L 410.654167 -387.96526 
L 410.234005 -387.328666 
L 409.978559 -386.692071 
L 409.974568 -386.055476 
L 410.149795 -385.418881 
L 410.306722 -384.782286 
L 410.274586 -384.145691 
L 410.070761 -383.509096 
L 409.850391 -382.872501 
L 409.717637 -382.235906 
L 409.666428 -381.599311 
L 409.653175 -380.962716 
L 409.650825 -380.326121 
L 409.650536 -379.689526 
L 409.650511 -379.052931 
L 409.65051 -378.416336 
L 409.65051 -377.779741 
L 409.65051 -377.143146 
L 409.65051 -376.506551 
L 409.65051 -375.869956 
L 409.65051 -375.233361 
L 409.65051 -374.596766 
L 409.65051 -373.960171 
L 409.65051 -373.323576 
L 409.65051 -372.686982 
L 409.65051 -372.050387 
L 409.65051 -371.413792 
L 409.65051 -370.777197 
L 409.65051 -370.140602 
L 409.65051 -369.504007 
L 409.65051 -368.867412 
L 409.65051 -368.230817 
L 409.65051 -367.594222 
L 409.65051 -366.957627 
L 409.65051 -366.321032 
L 409.65051 -365.684437 
L 409.65051 -365.047842 
L 409.65051 -364.411247 
L 409.65051 -363.774652 
L 409.65051 -363.138057 
L 409.65051 -362.501462 
L 409.65051 -361.864867 
L 409.65051 -361.228272 
L 409.65051 -360.591677 
L 409.65051 -359.955082 
L 409.65051 -359.318487 
L 409.65051 -358.681892 
L 409.65051 -358.045298 
L 409.65051 -357.408703 
L 409.65051 -356.772108 
L 409.65051 -356.135513 
L 409.65051 -355.498918 
L 409.65051 -354.862323 
L 409.65051 -354.225728 
L 409.65051 -353.589133 
L 409.65051 -352.952538 
L 409.650513 -352.315943 
L 409.65055 -351.679348 
L 409.650895 -351.042753 
L 409.653126 -350.406158 
L 409.663037 -349.769563 
L 409.692861 -349.132968 
L 409.751606 -348.496373 
L 409.820905 -347.859778 
L 409.853292 -347.223183 
z
" style="stroke: #666d78; stroke-opacity: 0.33"/>
    </defs>
    <g clip-path="url(#p0d72dee2b1)">
     <use xlink:href="#m1cba1db567" x="0" y="224.468926" style="fill: #666d78; fill-opacity: 0.33; stroke: #666d78; stroke-opacity: 0.33"/>
    </g>
   </g>
   <g id="line2d_17">
    <path clip-path="url(#p0d72dee2b1)" style="fill: none; stroke: #168a73; stroke-width: 1.4; stroke-linecap: square"/>
   </g>
   <g id="line2d_18">
    <path clip-path="url(#p0d72dee2b1)" style="fill: none; stroke: #a33378; stroke-width: 1.4; stroke-linecap: square"/>
   </g>
   <g id="line2d_19">
    <path clip-path="url(#p0d72dee2b1)" style="fill: none; stroke: #666d78; stroke-width: 1.4; stroke-linecap: square"/>
   </g>
   <g id="line2d_20">
    <path clip-path="url(#p0d72dee2b1)" style="fill: none; stroke: #168a73; stroke-width: 1.4; stroke-linecap: square"/>
   </g>
   <g id="line2d_21">
    <path clip-path="url(#p0d72dee2b1)" style="fill: none; stroke: #a33378; stroke-width: 1.4; stroke-linecap: square"/>
   </g>
   <g id="line2d_22">
    <path clip-path="url(#p0d72dee2b1)" style="fill: none; stroke: #666d78; stroke-width: 1.4; stroke-linecap: square"/>
   </g>
   <g id="line2d_23">
    <path clip-path="url(#p0d72dee2b1)" style="fill: none; stroke-dasharray: 2.59,1.12; stroke-dashoffset: 0; stroke: #adb6c0; stroke-width: 0.7"/>
   </g>
   <g id="patch_3">
    <path style="fill: none; stroke: #000000; stroke-width: 0.8; stroke-linejoin: miter; stroke-linecap: square"/>
   </g>
   <g id="patch_4">
    <path style="fill: none; stroke: #000000; stroke-width: 0.8; stroke-linejoin: miter; stroke-linecap: square"/>
   </g>
   <g id="PathCollection_1">
    <defs>
     <path id="m9de35d1abf" d="M 0 2.397916 
C 0.635935 2.397916 1.245909 2.145256 1.695582 1.695582 
C 2.145256 1.245909 2.397916 0.635935 2.397916 0 
C 2.397916 -0.635935 2.145256 -1.245909 1.695582 -1.695582 
C 1.245909 -2.145256 0.635935 -2.397916 0 -2.397916 
C -0.635935 -2.397916 -1.245909 -2.145256 -1.695582 -1.695582 
C -2.145256 -1.245909 -2.397916 -0.635935 -2.397916 0 
C -2.397916 0.635935 -2.145256 1.245909 -1.695582 1.695582 
C -1.245909 2.145256 -0.635935 2.397916 0 2.397916 
z
" style="stroke: #168a73"/>
    </defs>
    <g clip-path="url(#p0d72dee2b1)"/>
   </g>
   <g id="PathCollection_2">
    <defs>
     <path id="m1d1f717b58" d="M 0 2.397916 
C 0.635935 2.397916 1.245909 2.145256 1.695582 1.695582 
C 2.145256 1.245909 2.397916 0.635935 2.397916 0 
C 2.397916 -0.635935 2.145256 -1.245909 1.695582 -1.695582 
C 1.245909 -2.145256 0.635935 -2.397916 0 -2.397916 
C -0.635935 -2.397916 -1.245909 -2.145256 -1.695582 -1.695582 
C -2.145256 -1.245909 -2.397916 -0.635935 -2.397916 0 
C -2.397916 0.635935 -2.145256 1.245909 -1.695582 1.695582 
C -1.245909 2.145256 -0.635935 2.397916 0 2.397916 
z
" style="stroke: #a33378"/>
    </defs>
    <g clip-path="url(#p0d72dee2b1)"/>
   </g>
   <g id="PathCollection_3">
    <defs>
     <path id="meddd27bc22" d="M 0 2.397916 
C 0.635935 2.397916 1.245909 2.145256 1.695582 1.695582 
C 2.145256 1.245909 2.397916 0.635935 2.397916 0 
C 2.397916 -0.635935 2.145256 -1.245909 1.695582 -1.695582 
C 1.245909 -2.145256 0.635935 -2.397916 0 -2.397916 
C -0.635935 -2.397916 -1.245909 -2.145256 -1.695582 -1.695582 
C -2.145256 -1.245909 -2.397916 -0.635935 -2.397916 0 
C -2.397916 0.635935 -2.145256 1.245909 -1.695582 1.695582 
C -1.245909 2.145256 -0.635935 2.397916 0 2.397916 
z
" style="stroke: #666d78"/>
    </defs>
    <g clip-path="url(#p0d72dee2b1)"/>
   </g>
   <g id="text_13">
    <text style="font-weight: 700; font-size: 11px; font-family: 'DejaVu Sans'; text-anchor: middle" x="142.94766" y="-197.121281" transform="rotate(-0 142.94766 -197.121281)">T11</text>
   </g>
   <g id="PathCollection_4">
    <g clip-path="url(#p0d72dee2b1)"/>
   </g>
   <g id="PathCollection_5">
    <g clip-path="url(#p0d72dee2b1)"/>
   </g>
   <g id="PathCollection_6">
    <g clip-path="url(#p0d72dee2b1)"/>
   </g>
   <g id="text_14">
    <text style="font-weight: 700; font-size: 11px; font-family: 'DejaVu Sans'; text-anchor: middle" x="356.30994" y="-197.121281" transform="rotate(-0 356.30994 -197.121281)">T07</text>
   </g>
   <g id="text_15">
    <text style="font-size: 11px; font-family: 'DejaVu Sans'; text-anchor: middle" x="249.6288" y="-213.047387" transform="rotate(-0 249.6288 -213.047387)">a  LiDAR: 2,000 seven-day block resamples</text>
   </g>
  </g>
  <g id="axes_2">
   <g id="patch_5">
    <path d="M 53.0688 164.472613 
L 446.1888 164.472613 
L 446.1888 22.671086 
L 53.0688 22.671086 
z
" style="fill: #ffffff"/>
   </g>
   <g id="matplotlib.axis_3">
    <g id="xtick_7">
     <g id="line2d_24">
      <g>
       <use xlink:href="#m7ce2d9d57b" x="70.937891" y="164.472613" style="stroke: #000000; stroke-width: 0.8"/>
      </g>
     </g>
     <g id="text_16">
      <text style="font-size: 10px; font-family: 'DejaVu Sans'; text-anchor: middle" x="70.937891" y="179.070269" transform="rotate(-0 70.937891 179.070269)">SMV1</text>
     </g>
    </g>
    <g id="xtick_8">
     <g id="line2d_25">
      <g>
       <use xlink:href="#m7ce2d9d57b" x="130.501527" y="164.472613" style="stroke: #000000; stroke-width: 0.8"/>
      </g>
     </g>
     <g id="text_17">
      <text style="font-size: 10px; font-family: 'DejaVu Sans'; text-anchor: middle" x="130.501527" y="179.070269" transform="rotate(-0 130.501527 179.070269)">SMV2</text>
     </g>
    </g>
    <g id="xtick_9">
     <g id="line2d_26">
      <g>
       <use xlink:href="#m7ce2d9d57b" x="190.065164" y="164.472613" style="stroke: #000000; stroke-width: 0.8"/>
      </g>
     </g>
     <g id="text_18">
      <text style="font-size: 10px; font-family: 'DejaVu Sans'; text-anchor: middle" x="190.065164" y="179.070269" transform="rotate(-0 190.065164 179.070269)">SMV3</text>
     </g>
    </g>
    <g id="xtick_10">
     <g id="line2d_27">
      <g>
       <use xlink:href="#m7ce2d9d57b" x="249.6288" y="164.472613" style="stroke: #000000; stroke-width: 0.8"/>
      </g>
     </g>
     <g id="text_19">
      <text style="font-size: 10px; font-family: 'DejaVu Sans'; text-anchor: middle" x="249.6288" y="179.070269" transform="rotate(-0 249.6288 179.070269)">SMV4</text>
     </g>
    </g>
    <g id="xtick_11">
     <g id="line2d_28">
      <g>
       <use xlink:href="#m7ce2d9d57b" x="309.192436" y="164.472613" style="stroke: #000000; stroke-width: 0.8"/>
      </g>
     </g>
     <g id="text_20">
      <text style="font-size: 10px; font-family: 'DejaVu Sans'; text-anchor: middle" x="309.192436" y="179.070269" transform="rotate(-0 309.192436 179.070269)">SMV5</text>
     </g>
    </g>
    <g id="xtick_12">
     <g id="line2d_29">
      <g>
       <use xlink:href="#m7ce2d9d57b" x="368.756073" y="164.472613" style="stroke: #000000; stroke-width: 0.8"/>
      </g>
     </g>
     <g id="text_21">
      <text style="font-size: 10px; font-family: 'DejaVu Sans'; text-anchor: middle" x="368.756073" y="179.070269" transform="rotate(-0 368.756073 179.070269)">SMV6</text>
     </g>
    </g>
    <g id="xtick_13">
     <g id="line2d_30">
      <g>
       <use xlink:href="#m7ce2d9d57b" x="428.319709" y="164.472613" style="stroke: #000000; stroke-width: 0.8"/>
      </g>
     </g>
     <g id="text_22">
      <text style="font-size: 10px; font-family: 'DejaVu Sans'; text-anchor: middle" x="428.319709" y="179.070269" transform="rotate(-0 428.319709 179.070269)">SMV7</text>
     </g>
    </g>
   </g>
   <g id="matplotlib.axis_4">
    <g id="ytick_6">
     <g id="line2d_31">
      <path d="M 53.0688 144.215252 
L 446.1888 144.215252 
" clip-path="url(#pa160544b87)" style="fill: none; stroke: #dfe5eb; stroke-width: 0.6; stroke-linecap: square"/>
     </g>
     <g id="line2d_32">
      <g>
       <use xlink:href="#mc45f9be437" x="53.0688" y="144.215252" style="stroke: #000000; stroke-width: 0.8"/>
      </g>
     </g>
     <g id="text_23">
      <text style="font-size: 10px; font-family: 'DejaVu Sans'; text-anchor: end" x="46.0688" y="148.01408" transform="rotate(-0 46.0688 148.01408)">0.84</text>
     </g>
    </g>
    <g id="ytick_7">
     <g id="line2d_33">
      <path d="M 53.0688 103.70053 
L 446.1888 103.70053 
" clip-path="url(#pa160544b87)" style="fill: none; stroke: #dfe5eb; stroke-width: 0.6; stroke-linecap: square"/>
     </g>
     <g id="line2d_34">
      <g>
       <use xlink:href="#mc45f9be437" x="53.0688" y="103.70053" style="stroke: #000000; stroke-width: 0.8"/>
      </g>
     </g>
     <g id="text_24">
      <text style="font-size: 10px; font-family: 'DejaVu Sans'; text-anchor: end" x="46.0688" y="107.499358" transform="rotate(-0 46.0688 107.499358)">0.88</text>
     </g>
    </g>
    <g id="ytick_8">
     <g id="line2d_35">
      <path d="M 53.0688 63.185808 
L 446.1888 63.185808 
" clip-path="url(#pa160544b87)" style="fill: none; stroke: #dfe5eb; stroke-width: 0.6; stroke-linecap: square"/>
     </g>
     <g id="line2d_36">
      <g>
       <use xlink:href="#mc45f9be437" x="53.0688" y="63.185808" style="stroke: #000000; stroke-width: 0.8"/>
      </g>
     </g>
     <g id="text_25">
      <text style="font-size: 10px; font-family: 'DejaVu Sans'; text-anchor: end" x="46.0688" y="66.984636" transform="rotate(-0 46.0688 66.984636)">0.92</text>
     </g>
    </g>
    <g id="ytick_9">
     <g id="line2d_37">
      <path d="M 53.0688 22.671086 
L 446.1888 22.671086 
" clip-path="url(#pa160544b87)" style="fill: none; stroke: #dfe5eb; stroke-width: 0.6; stroke-linecap: square"/>
     </g>
     <g id="line2d_38">
      <g>
       <use xlink:href="#mc45f9be437" x="53.0688" y="22.671086" style="stroke: #000000; stroke-width: 0.8"/>
      </g>
     </g>
     <g id="text_26">
      <text style="font-size: 10px; font-family: 'DejaVu Sans'; text-anchor: end" x="46.0688" y="26.469914" transform="rotate(-0 46.0688 26.469914)">0.96</text>
     </g>
    </g>
    <g id="text_27">
     <text style="font-size: 11px; font-family: 'DejaVu Sans'; text-anchor: middle" x="17.160597" y="93.571849" transform="rotate(-90 17.160597 93.571849)">Directional AUROC</text>
    </g>
   </g>
   <g id="line2d_39">
    <path d="M 70.937891 81.606879 
L 130.501527 57.107329 
L 190.065164 82.336777 
L 249.6288 72.994772 
L 309.192436 77.590099 
L 368.756073 63.761287 
L 428.319709 66.634937 
" clip-path="url(#pa160544b87)" style="fill: none; stroke: #21618c; stroke-width: 1.4; stroke-linecap: square"/>
    <defs>
     <path id="me89ad1ed22" d="M 0 2 
C 0.530406 2 1.03916 1.789267 1.414214 1.414214 
C 1.789267 1.03916 2 0.530406 2 0 
C 2 -0.530406 1.789267 -1.03916 1.414214 -1.414214 
C 1.03916 -1.789267 0.530406 -2 0 -2 
C -0.530406 -2 -1.03916 -1.789267 -1.414214 -1.414214 
C -1.789267 -1.03916 -2 -0.530406 -2 0 
C -2 0.530406 -1.789267 1.03916 -1.414214 1.414214 
C -1.03916 1.789267 -0.530406 2 0 2 
z
" style="stroke: #21618c"/>
    </defs>
    <g clip-path="url(#pa160544b87)">
     <use xlink:href="#me89ad1ed22" x="70.937891" y="81.606879" style="fill: #21618c; stroke: #21618c"/>
     <use xlink:href="#me89ad1ed22" x="130.501527" y="57.107329" style="fill: #21618c; stroke: #21618c"/>
     <use xlink:href="#me89ad1ed22" x="190.065164" y="82.336777" style="fill: #21618c; stroke: #21618c"/>
     <use xlink:href="#me89ad1ed22" x="249.6288" y="72.994772" style="fill: #21618c; stroke: #21618c"/>
     <use xlink:href="#me89ad1ed22" x="309.192436" y="77.590099" style="fill: #21618c; stroke: #21618c"/>
     <use xlink:href="#me89ad1ed22" x="368.756073" y="63.761287" style="fill: #21618c; stroke: #21618c"/>
     <use xlink:href="#me89ad1ed22" x="428.319709" y="66.634937" style="fill: #21618c; stroke: #21618c"/>
    </g>
   </g>
   <g id="line2d_40">
    <path d="M 70.937891 103.833252 
L 130.501527 90.556153 
L 190.065164 98.883133 
L 249.6288 113.152849 
L 309.192436 122.982904 
L 368.756073 109.485167 
L 428.319709 102.176025 
" clip-path="url(#pa160544b87)" style="fill: none; stroke: #168a73; stroke-width: 1.4; stroke-linecap: square"/>
    <defs>
     <path id="m8c5a0759ee" d="M 0 2 
C 0.530406 2 1.03916 1.789267 1.414214 1.414214 
C 1.789267 1.03916 2 0.530406 2 0 
C 2 -0.530406 1.789267 -1.03916 1.414214 -1.414214 
C 1.03916 -1.789267 0.530406 -2 0 -2 
C -0.530406 -2 -1.03916 -1.789267 -1.414214 -1.414214 
C -1.789267 -1.03916 -2 -0.530406 -2 0 
C -2 0.530406 -1.789267 1.03916 -1.414214 1.414214 
C -1.03916 1.789267 -0.530406 2 0 2 
z
" style="stroke: #168a73"/>
    </defs>
    <g clip-path="url(#pa160544b87)">
     <use xlink:href="#m8c5a0759ee" x="70.937891" y="103.833252" style="fill: #168a73; stroke: #168a73"/>
     <use xlink:href="#m8c5a0759ee" x="130.501527" y="90.556153" style="fill: #168a73; stroke: #168a73"/>
     <use xlink:href="#m8c5a0759ee" x="190.065164" y="98.883133" style="fill: #168a73; stroke: #168a73"/>
     <use xlink:href="#m8c5a0759ee" x="249.6288" y="113.152849" style="fill: #168a73; stroke: #168a73"/>
     <use xlink:href="#m8c5a0759ee" x="309.192436" y="122.982904" style="fill: #168a73; stroke: #168a73"/>
     <use xlink:href="#m8c5a0759ee" x="368.756073" y="109.485167" style="fill: #168a73; stroke: #168a73"/>
     <use xlink:href="#m8c5a0759ee" x="428.319709" y="102.176025" style="fill: #168a73; stroke: #168a73"/>
    </g>
   </g>
   <g id="line2d_41">
    <path d="M 70.937891 97.606231 
L 130.501527 75.864923 
L 190.065164 98.209175 
L 249.6288 99.776463 
L 309.192436 126.710525 
L 368.756073 102.890255 
L 428.319709 96.234093 
" clip-path="url(#pa160544b87)" style="fill: none; stroke: #a33378; stroke-width: 1.4; stroke-linecap: square"/>
    <defs>
     <path id="m31bc4fe4e6" d="M 0 2 
C 0.530406 2 1.03916 1.789267 1.414214 1.414214 
C 1.789267 1.03916 2 0.530406 2 0 
C 2 -0.530406 1.789267 -1.03916 1.414214 -1.414214 
C 1.03916 -1.789267 0.530406 -2 0 -2 
C -0.530406 -2 -1.03916 -1.789267 -1.414214 -1.414214 
C -1.789267 -1.03916 -2 -0.530406 -2 0 
C -2 0.530406 -1.789267 1.03916 -1.414214 1.414214 
C -1.03916 1.789267 -0.530406 2 0 2 
z
" style="stroke: #a33378"/>
    </defs>
    <g clip-path="url(#pa160544b87)">
     <use xlink:href="#m31bc4fe4e6" x="70.937891" y="97.606231" style="fill: #a33378; stroke: #a33378"/>
     <use xlink:href="#m31bc4fe4e6" x="130.501527" y="75.864923" style="fill: #a33378; stroke: #a33378"/>
     <use xlink:href="#m31bc4fe4e6" x="190.065164" y="98.209175" style="fill: #a33378; stroke: #a33378"/>
     <use xlink:href="#m31bc4fe4e6" x="249.6288" y="99.776463" style="fill: #a33378; stroke: #a33378"/>
     <use xlink:href="#m31bc4fe4e6" x="309.192436" y="126.710525" style="fill: #a33378; stroke: #a33378"/>
     <use xlink:href="#m31bc4fe4e6" x="368.756073" y="102.890255" style="fill: #a33378; stroke: #a33378"/>
     <use xlink:href="#m31bc4fe4e6" x="428.319709" y="96.234093" style="fill: #a33378; stroke: #a33378"/>
    </g>
   </g>
   <g id="patch_6">
    <path d="M 53.0688 164.472613 
L 53.0688 22.671086 
" style="fill: none; stroke: #000000; stroke-width: 0.8; stroke-linejoin: miter; stroke-linecap: square"/>
   </g>
   <g id="patch_7">
    <path d="M 53.0688 164.472613 
L 446.1888 164.472613 
" style="fill: none; stroke: #000000; stroke-width: 0.8; stroke-linejoin: miter; stroke-linecap: square"/>
   </g>
   <g id="text_28">
    <text style="font-size: 11px; font-family: 'DejaVu Sans'; text-anchor: middle" x="249.6288" y="16.671086" transform="rotate(-0 249.6288 16.671086)">b  SMARTEOLE: frozen WindCube transfer</text>
   </g>
   <g id="legend_1">
    <g id="line2d_42">
     <path d="M 128.69755 205.931355 
L 136.19755 205.931355 
L 143.69755 205.931355 
" style="fill: none; stroke: #21618c; stroke-width: 1.4; stroke-linecap: square"/>
     <g>
      <use xlink:href="#me89ad1ed22" x="136.19755" y="205.931355" style="fill: #21618c; stroke: #21618c"/>
     </g>
    </g>
    <g id="text_29">
     <text style="font-size: 10px; font-family: 'DejaVu Sans'; text-anchor: start" x="151.69755" y="209.431355" transform="rotate(-0 151.69755 209.431355)">Raw25</text>
    </g>
    <g id="line2d_43">
     <path d="M 193.456925 205.931355 
L 200.956925 205.931355 
L 208.456925 205.931355 
" style="fill: none; stroke: #168a73; stroke-width: 1.4; stroke-linecap: square"/>
     <g>
      <use xlink:href="#m8c5a0759ee" x="200.956925" y="205.931355" style="fill: #168a73; stroke: #168a73"/>
     </g>
    </g>
    <g id="text_30">
     <text style="font-size: 10px; font-family: 'DejaVu Sans'; text-anchor: start" x="216.456925" y="209.431355" transform="rotate(-0 216.456925 209.431355)">GAF/PCA6</text>
    </g>
    <g id="line2d_44">
     <path d="M 274.381925 205.931355 
L 281.881925 205.931355 
L 289.381925 205.931355 
" style="fill: none; stroke: #a33378; stroke-width: 1.4; stroke-linecap: square"/>
     <g>
      <use xlink:href="#m31bc4fe4e6" x="281.881925" y="205.931355" style="fill: #a33378; stroke: #a33378"/>
     </g>
    </g>
    <g id="text_31">
     <text style="font-size: 10px; font-family: 'DejaVu Sans'; text-anchor: start" x="297.381925" y="209.431355" transform="rotate(-0 297.381925 209.431355)">GAF + polarity</text>
    </g>
   </g>
  </g>
 </g>
 <defs>
  <clipPath id="p0d72dee2b1">
   <rect x="53.0688" y="-207.047387" width="393.12" height="141.801527"/>
  </clipPath>
  <clipPath id="pa160544b87">
   <rect x="53.0688" y="22.671086" width="393.12" height="141.801527"/>
  </clipPath>
 </defs>
</svg>
