<?xml version="1.0" encoding="utf-8" standalone="no"?>
<!DOCTYPE svg PUBLIC "-//W3C//DTD SVG 1.1//EN"
  "http://www.w3.org/Graphics/SVG/1.1/DTD/svg11.dtd">
<svg xmlns:xlink="http://www.w3.org/1999/xlink" width="201.772193pt" height="152.013055pt" viewBox="0 0 201.772193 152.013055" xmlns="http://www.w3.org/2000/svg" version="1.1">
 <metadata>
  <rdf:RDF xmlns:dc="http://purl.org/dc/elements/1.1/" xmlns:cc="http://creativecommons.org/ns#" xmlns:rdf="http://www.w3.org/1999/02/22-rdf-syntax-ns#">
   <cc:Work>
    <dc:type rdf:resource="http://purl.org/dc/dcmitype/StillImage"/>
    <dc:date>2026-09-21T10:34:12.884212</dc:date>
    <dc:format>image/svg+xml</dc:format>
    <dc:creator>
     <cc:Agent>
      <dc:title>Matplotlib v3.11.2, https://matplotlib.org/</dc:title>
     </cc:Agent>
    </dc:creator>
   </cc:Work>
  </rdf:RDF>
 </metadata>
 <defs>
  <style type="text/css">*{stroke-linejoin: round; stroke-linecap: butt}</style>
 </defs>
 <g id="figure_1">
  <g id="patch_1">
   <path d="M 0 152.013055 
L 201.772193 152.013055 
L 201.772193 0 
L 0 0 
z
" style="fill: #ffffff"/>
  </g>
  <g id="axes_1">
   <g id="patch_2">
    <path d="M 38.840234 129.382942 
L 197.891959 129.382942 
L 197.891959 21.227769 
L 38.840234 21.227769 
z
" style="fill: #ffffff"/>
   </g>
   <g id="matplotlib.axis_1">
    <g id="xtick_1">
     <g id="line2d_1">
      <defs>
       <path id="ma05c10da70" d="M 0 0 
L 0 3.5 
" style="stroke: #000000; stroke-width: 0.8"/>
      </defs>
      <g>
       <use xlink:href="#ma05c10da70" x="46.069858" y="129.382942" style="stroke: #000000; stroke-width: 0.8"/>
      </g>
     </g>
     <g id="text_1">
      <text style="font-size: 10px; font-family: 'DejaVu Sans'; text-anchor: middle" x="46.069858" y="143.980598" transform="rotate(-0 46.069858 143.980598)">1</text>
     </g>
    </g>
    <g id="xtick_2">
     <g id="line2d_2">
      <g>
       <use xlink:href="#ma05c10da70" x="94.26735" y="129.382942" style="stroke: #000000; stroke-width: 0.8"/>
      </g>
     </g>
     <g id="text_2">
      <text style="font-size: 10px; font-family: 'DejaVu Sans'; text-anchor: middle" x="94.26735" y="143.980598" transform="rotate(-0 94.26735 143.980598)">2</text>
     </g>
    </g>
    <g id="xtick_3">
     <g id="line2d_3">
      <g>
       <use xlink:href="#ma05c10da70" x="190.662335" y="129.382942" style="stroke: #000000; stroke-width: 0.8"/>
      </g>
     </g>
     <g id="text_3">
      <text style="font-size: 10px; font-family: 'DejaVu Sans'; text-anchor: middle" x="190.662335" y="143.980598" transform="rotate(-0 190.662335 143.980598)">4</text>
     </g>
    </g>
   </g>
   <g id="matplotlib.axis_2">
    <g id="ytick_1">
     <g id="line2d_4">
      <path d="M 38.840234 111.562982 
L 197.891959 111.562982 
" clip-path="url(#p6e469ea00d)" style="fill: none; stroke: #dfe5eb; stroke-width: 0.6; stroke-linecap: square"/>
     </g>
     <g id="line2d_5">
      <defs>
       <path id="m2a9db181a6" d="M 0 0 
L -3.5 0 
" style="stroke: #000000; stroke-width: 0.8"/>
      </defs>
      <g>
       <use xlink:href="#m2a9db181a6" x="38.840234" y="111.562982" style="stroke: #000000; stroke-width: 0.8"/>
      </g>
     </g>
     <g id="text_4">
      <text style="font-size: 10px; font-family: 'DejaVu Sans'; text-anchor: end" x="31.840234" y="115.36181" transform="rotate(-0 31.840234 115.36181)">12</text>
     </g>
    </g>
    <g id="ytick_2">
     <g id="line2d_6">
      <path d="M 38.840234 88.139996 
L 197.891959 88.139996 
" clip-path="url(#p6e469ea00d)" style="fill: none; stroke: #dfe5eb; stroke-width: 0.6; stroke-linecap: square"/>
     </g>
     <g id="line2d_7">
      <g>
       <use xlink:href="#m2a9db181a6" x="38.840234" y="88.139996" style="stroke: #000000; stroke-width: 0.8"/>
      </g>
     </g>
     <g id="text_5">
      <text style="font-size: 10px; font-family: 'DejaVu Sans'; text-anchor: end" x="31.840234" y="91.938825" transform="rotate(-0 31.840234 91.938825)">14</text>
     </g>
    </g>
    <g id="ytick_3">
     <g id="line2d_8">
      <path d="M 38.840234 64.717011 
L 197.891959 64.717011 
" clip-path="url(#p6e469ea00d)" style="fill: none; stroke: #dfe5eb; stroke-width: 0.6; stroke-linecap: square"/>
     </g>
     <g id="line2d_9">
      <g>
       <use xlink:href="#m2a9db181a6" x="38.840234" y="64.717011" style="stroke: #000000; stroke-width: 0.8"/>
      </g>
     </g>
     <g id="text_6">
      <text style="font-size: 10px; font-family: 'DejaVu Sans'; text-anchor: end" x="31.840234" y="68.515839" transform="rotate(-0 31.840234 68.515839)">16</text>
     </g>
    </g>
    <g id="ytick_4">
     <g id="line2d_10">
      <path d="M 38.840234 41.294026 
L 197.891959 41.294026 
" clip-path="url(#p6e469ea00d)" style="fill: none; stroke: #dfe5eb; stroke-width: 0.6; stroke-linecap: square"/>
     </g>
     <g id="line2d_11">
      <g>
       <use xlink:href="#m2a9db181a6" x="38.840234" y="41.294026" style="stroke: #000000; stroke-width: 0.8"/>
      </g>
     </g>
     <g id="text_7">
      <text style="font-size: 10px; font-family: 'DejaVu Sans'; text-anchor: end" x="31.840234" y="45.092854" transform="rotate(-0 31.840234 45.092854)">18</text>
     </g>
    </g>
    <g id="text_8">
     <text style="font-size: 11px; font-family: 'DejaVu Sans'; text-anchor: middle" x="12.472656" y="75.305356" transform="rotate(-90 12.472656 75.305356)">nMAE (%)</text>
    </g>
   </g>
   <g id="line2d_12">
    <path d="M 46.069858 122.831268 
L 94.26735 92.091205 
L 190.662335 46.763849 
" clip-path="url(#p6e469ea00d)" style="fill: none; stroke: #536474; stroke-width: 1.6; stroke-linecap: square"/>
    <defs>
     <path id="m1ecfa6d3cb" d="M 0 2.5 
C 0.663008 2.5 1.29895 2.236584 1.767767 1.767767 
C 2.236584 1.29895 2.5 0.663008 2.5 0 
C 2.5 -0.663008 2.236584 -1.29895 1.767767 -1.767767 
C 1.29895 -2.236584 0.663008 -2.5 0 -2.5 
C -0.663008 -2.5 -1.29895 -2.236584 -1.767767 -1.767767 
C -2.236584 -1.29895 -2.5 -0.663008 -2.5 0 
C -2.5 0.663008 -2.236584 1.29895 -1.767767 1.767767 
C -1.29895 2.236584 -0.663008 2.5 0 2.5 
z
" style="stroke: #536474"/>
    </defs>
    <g clip-path="url(#p6e469ea00d)">
     <use xlink:href="#m1ecfa6d3cb" x="46.069858" y="122.831268" style="fill: #536474; stroke: #536474"/>
     <use xlink:href="#m1ecfa6d3cb" x="94.26735" y="92.091205" style="fill: #536474; stroke: #536474"/>
     <use xlink:href="#m1ecfa6d3cb" x="190.662335" y="46.763849" style="fill: #536474; stroke: #536474"/>
    </g>
   </g>
   <g id="line2d_13">
    <path d="M 46.069858 123.59881 
L 94.26735 92.722084 
L 190.662335 52.140872 
" clip-path="url(#p6e469ea00d)" style="fill: none; stroke: #19836a; stroke-width: 1.6; stroke-linecap: square"/>
    <defs>
     <path id="m86ac4fab87" d="M 0 2.5 
C 0.663008 2.5 1.29895 2.236584 1.767767 1.767767 
C 2.236584 1.29895 2.5 0.663008 2.5 0 
C 2.5 -0.663008 2.236584 -1.29895 1.767767 -1.767767 
C 1.29895 -2.236584 0.663008 -2.5 0 -2.5 
C -0.663008 -2.5 -1.29895 -2.236584 -1.767767 -1.767767 
C -2.236584 -1.29895 -2.5 -0.663008 -2.5 0 
C -2.5 0.663008 -2.236584 1.29895 -1.767767 1.767767 
C -1.29895 2.236584 -0.663008 2.5 0 2.5 
z
" style="stroke: #19836a"/>
    </defs>
    <g clip-path="url(#p6e469ea00d)">
     <use xlink:href="#m86ac4fab87" x="46.069858" y="123.59881" style="fill: #19836a; stroke: #19836a"/>
     <use xlink:href="#m86ac4fab87" x="94.26735" y="92.722084" style="fill: #19836a; stroke: #19836a"/>
     <use xlink:href="#m86ac4fab87" x="190.662335" y="52.140872" style="fill: #19836a; stroke: #19836a"/>
    </g>
   </g>
   <g id="line2d_14">
    <path d="M 46.069858 124.466798 
L 94.26735 91.808917 
L 190.662335 46.345222 
" clip-path="url(#p6e469ea00d)" style="fill: none; stroke: #a33378; stroke-width: 1.6; stroke-linecap: square"/>
    <defs>
     <path id="mef58900a19" d="M 0 2.5 
C 0.663008 2.5 1.29895 2.236584 1.767767 1.767767 
C 2.236584 1.29895 2.5 0.663008 2.5 0 
C 2.5 -0.663008 2.236584 -1.29895 1.767767 -1.767767 
C 1.29895 -2.236584 0.663008 -2.5 0 -2.5 
C -0.663008 -2.5 -1.29895 -2.236584 -1.767767 -1.767767 
C -2.236584 -1.29895 -2.5 -0.663008 -2.5 0 
C -2.5 0.663008 -2.236584 1.29895 -1.767767 1.767767 
C -1.29895 2.236584 -0.663008 2.5 0 2.5 
z
" style="stroke: #a33378"/>
    </defs>
    <g clip-path="url(#p6e469ea00d)">
     <use xlink:href="#mef58900a19" x="46.069858" y="124.466798" style="fill: #a33378; stroke: #a33378"/>
     <use xlink:href="#mef58900a19" x="94.26735" y="91.808917" style="fill: #a33378; stroke: #a33378"/>
     <use xlink:href="#mef58900a19" x="190.662335" y="46.345222" style="fill: #a33378; stroke: #a33378"/>
    </g>
   </g>
   <g id="line2d_15">
    <path d="M 46.069858 117.034667 
L 94.26735 82.594963 
L 190.662335 26.143914 
" clip-path="url(#p6e469ea00d)" style="fill: none; stroke: #be8533; stroke-width: 1.6; stroke-linecap: square"/>
    <defs>
     <path id="mb46e599a37" d="M 0 2.5 
C 0.663008 2.5 1.29895 2.236584 1.767767 1.767767 
C 2.236584 1.29895 2.5 0.663008 2.5 0 
C 2.5 -0.663008 2.236584 -1.29895 1.767767 -1.767767 
C 1.29895 -2.236584 0.663008 -2.5 0 -2.5 
C -0.663008 -2.5 -1.29895 -2.236584 -1.767767 -1.767767 
C -2.236584 -1.29895 -2.5 -0.663008 -2.5 0 
C -2.5 0.663008 -2.236584 1.29895 -1.767767 1.767767 
C -1.29895 2.236584 -0.663008 2.5 0 2.5 
z
" style="stroke: #be8533"/>
    </defs>
    <g clip-path="url(#p6e469ea00d)">
     <use xlink:href="#mb46e599a37" x="46.069858" y="117.034667" style="fill: #be8533; stroke: #be8533"/>
     <use xlink:href="#mb46e599a37" x="94.26735" y="82.594963" style="fill: #be8533; stroke: #be8533"/>
     <use xlink:href="#mb46e599a37" x="190.662335" y="26.143914" style="fill: #be8533; stroke: #be8533"/>
    </g>
   </g>
   <g id="patch_3">
    <path d="M 38.840234 129.382942 
L 38.840234 21.227769 
" style="fill: none; stroke: #000000; stroke-width: 0.8; stroke-linejoin: miter; stroke-linecap: square"/>
   </g>
   <g id="patch_4">
    <path d="M 38.840234 129.382942 
L 197.891959 129.382942 
" style="fill: none; stroke: #000000; stroke-width: 0.8; stroke-linejoin: miter; stroke-linecap: square"/>
   </g>
   <g id="text_9">
    <text style="font-weight: 700; font-size: 10px; font-family: 'DejaVu Sans'; text-anchor: start" x="38.840234" y="13.227769" transform="rotate(-0 38.840234 13.227769)">a  Forecast error</text>
   </g>
  </g>
  <g id="axes_2">
   <g id="patch_5">
    <path d="M 250.824372 133.709149 
L 422.600234 133.709149 
L 422.600234 16.901563 
L 250.824372 16.901563 
z
" style="fill: #ffffff"/>
   </g>
   <g id="matplotlib.axis_3">
    <g id="xtick_4">
     <g id="line2d_16">
      <g>
       <use xlink:href="#ma05c10da70" x="258.632366" y="133.709149" style="stroke: #000000; stroke-width: 0.8"/>
      </g>
     </g>
     <g id="text_10">
      <text style="font-size: 10px; font-family: 'DejaVu Sans'; text-anchor: middle" x="258.632366" y="148.306805" transform="rotate(-0 258.632366 148.306805)">1</text>
     </g>
    </g>
    <g id="xtick_5">
     <g id="line2d_17">
      <g>
       <use xlink:href="#ma05c10da70" x="310.685658" y="133.709149" style="stroke: #000000; stroke-width: 0.8"/>
      </g>
     </g>
     <g id="text_11">
      <text style="font-size: 10px; font-family: 'DejaVu Sans'; text-anchor: middle" x="310.685658" y="148.306805" transform="rotate(-0 310.685658 148.306805)">2</text>
     </g>
    </g>
    <g id="xtick_6">
     <g id="line2d_18">
      <g>
       <use xlink:href="#ma05c10da70" x="414.792241" y="133.709149" style="stroke: #000000; stroke-width: 0.8"/>
      </g>
     </g>
     <g id="text_12">
      <text style="font-size: 10px; font-family: 'DejaVu Sans'; text-anchor: middle" x="414.792241" y="148.306805" transform="rotate(-0 414.792241 148.306805)">4</text>
     </g>
    </g>
    <g id="text_13">
     <text style="font-size: 11px; font-family: 'DejaVu Sans'; text-anchor: middle" x="336.712303" y="163.06743" transform="rotate(-0 336.712303 163.06743)">Forecast lead (h)</text>
    </g>
   </g>
   <g id="matplotlib.axis_4">
    <g id="ytick_5">
     <g id="line2d_19">
      <path clip-path="url(#pa7e2067714)" style="fill: none; stroke: #dfe5eb; stroke-width: 0.6; stroke-linecap: square"/>
     </g>
     <g id="line2d_20">
      <g>
       <use xlink:href="#m2a9db181a6" x="250.824372" y="114.790471" style="stroke: #000000; stroke-width: 0.8"/>
      </g>
     </g>
     <g id="text_14">
      <text style="font-size: 10px; font-family: 'DejaVu Sans'; text-anchor: end" x="243.824372" y="118.589299" transform="rotate(-0 243.824372 118.589299)">200</text>
     </g>
    </g>
    <g id="ytick_6">
     <g id="line2d_21">
      <path clip-path="url(#pa7e2067714)" style="fill: none; stroke: #dfe5eb; stroke-width: 0.6; stroke-linecap: square"/>
     </g>
     <g id="line2d_22">
      <g>
       <use xlink:href="#m2a9db181a6" x="250.824372" y="74.026018" style="stroke: #000000; stroke-width: 0.8"/>
      </g>
     </g>
     <g id="text_15">
      <text style="font-size: 10px; font-family: 'DejaVu Sans'; text-anchor: end" x="243.824372" y="77.824846" transform="rotate(-0 243.824372 77.824846)">300</text>
     </g>
    </g>
    <g id="ytick_7">
     <g id="line2d_23">
      <path clip-path="url(#pa7e2067714)" style="fill: none; stroke: #dfe5eb; stroke-width: 0.6; stroke-linecap: square"/>
     </g>
     <g id="line2d_24">
      <g>
       <use xlink:href="#m2a9db181a6" x="250.824372" y="33.261565" style="stroke: #000000; stroke-width: 0.8"/>
      </g>
     </g>
     <g id="text_16">
      <text style="font-size: 10px; font-family: 'DejaVu Sans'; text-anchor: end" x="243.824372" y="37.060393" transform="rotate(-0 243.824372 37.060393)">400</text>
     </g>
    </g>
    <g id="text_17">
     <text style="font-size: 11px; font-family: 'DejaVu Sans'; text-anchor: middle" x="218.094294" y="75.305356" transform="rotate(-90 218.094294 75.305356)">Gross debits (£k)</text>
    </g>
   </g>
   <g id="line2d_25">
    <path clip-path="url(#pa7e2067714)" style="fill: none; stroke: #536474; stroke-width: 1.6; stroke-linecap: square"/>
    <g clip-path="url(#pa7e2067714)">
     <use xlink:href="#m1ecfa6d3cb" x="258.632366" y="128.399713" style="fill: #536474; stroke: #536474"/>
     <use xlink:href="#m1ecfa6d3cb" x="310.685658" y="112.275624" style="fill: #536474; stroke: #536474"/>
     <use xlink:href="#m1ecfa6d3cb" x="414.792241" y="89.404297" style="fill: #536474; stroke: #536474"/>
    </g>
   </g>
   <g id="line2d_26">
    <path clip-path="url(#pa7e2067714)" style="fill: none; stroke: #19836a; stroke-width: 1.6; stroke-linecap: square"/>
    <g clip-path="url(#pa7e2067714)">
     <use xlink:href="#m86ac4fab87" x="258.632366" y="124.471717" style="fill: #19836a; stroke: #19836a"/>
     <use xlink:href="#m86ac4fab87" x="310.685658" y="104.382648" style="fill: #19836a; stroke: #19836a"/>
     <use xlink:href="#m86ac4fab87" x="414.792241" y="75.605263" style="fill: #19836a; stroke: #19836a"/>
    </g>
   </g>
   <g id="line2d_27">
    <path clip-path="url(#pa7e2067714)" style="fill: none; stroke: #a33378; stroke-width: 1.6; stroke-linecap: square"/>
    <g clip-path="url(#pa7e2067714)">
     <use xlink:href="#mef58900a19" x="258.632366" y="125.521071" style="fill: #a33378; stroke: #a33378"/>
     <use xlink:href="#mef58900a19" x="310.685658" y="101.304119" style="fill: #a33378; stroke: #a33378"/>
     <use xlink:href="#mef58900a19" x="414.792241" y="58.228904" style="fill: #a33378; stroke: #a33378"/>
    </g>
   </g>
   <g id="line2d_28">
    <path clip-path="url(#pa7e2067714)" style="fill: none; stroke: #be8533; stroke-width: 1.6; stroke-linecap: square"/>
    <g clip-path="url(#pa7e2067714)">
     <use xlink:href="#mb46e599a37" x="258.632366" y="109.965348" style="fill: #be8533; stroke: #be8533"/>
     <use xlink:href="#mb46e599a37" x="310.685658" y="82.514012" style="fill: #be8533; stroke: #be8533"/>
     <use xlink:href="#mb46e599a37" x="414.792241" y="22.210998" style="fill: #be8533; stroke: #be8533"/>
    </g>
   </g>
   <g id="patch_6">
    <path style="fill: none; stroke: #000000; stroke-width: 0.8; stroke-linejoin: miter; stroke-linecap: square"/>
   </g>
   <g id="patch_7">
    <path style="fill: none; stroke: #000000; stroke-width: 0.8; stroke-linejoin: miter; stroke-linecap: square"/>
   </g>
   <g id="text_18">
    <text style="font-weight: 700; font-size: 10px; font-family: 'DejaVu Sans'; text-anchor: start" x="250.824372" y="8.901563" transform="rotate(-0 250.824372 8.901563)">b  Price exposure</text>
   </g>
  </g>
  <g id="legend_1">
   <g id="line2d_29">
    <path style="fill: none; stroke: #536474; stroke-width: 1.6; stroke-linecap: square"/>
    <g/>
   </g>
   <g id="text_19">
    <text style="font-size: 9px; font-family: 'DejaVu Sans'; text-anchor: start" x="50.947344" y="-28.988051" transform="rotate(-0 50.947344 -28.988051)">Persistence</text>
   </g>
   <g id="line2d_30">
    <path style="fill: none; stroke: #19836a; stroke-width: 1.6; stroke-linecap: square"/>
    <g/>
   </g>
   <g id="text_20">
    <text style="font-size: 9px; font-family: 'DejaVu Sans'; text-anchor: start" x="126.274531" y="-28.988051" transform="rotate(-0 126.274531 -28.988051)">Weather</text>
   </g>
   <g id="line2d_31">
    <path style="fill: none; stroke: #a33378; stroke-width: 1.6; stroke-linecap: square"/>
    <g/>
   </g>
   <g id="text_21">
    <text style="font-size: 9px; font-family: 'DejaVu Sans'; text-anchor: start" x="188.01875" y="-28.988051" transform="rotate(-0 188.01875 -28.988051)">Weather + events</text>
   </g>
   <g id="line2d_32">
    <path style="fill: none; stroke: #be8533; stroke-width: 1.6; stroke-linecap: square"/>
    <g/>
   </g>
   <g id="text_22">
    <text style="font-size: 9px; font-family: 'DejaVu Sans'; text-anchor: start" x="293.348281" y="-28.988051" transform="rotate(-0 293.348281 -28.988051)">Legacy mixture</text>
   </g>
  </g>
 </g>
 <defs>
  <clipPath id="p6e469ea00d">
   <rect x="38.840234" y="21.227769" width="159.051724" height="108.155172"/>
  </clipPath>
  <clipPath id="pa7e2067714">
   <rect x="250.824372" y="16.901563" width="171.775862" height="116.807586"/>
  </clipPath>
 </defs>
</svg>
